<svg version="1.1" id="Layer_1" xmlns="http://www.w3.org/2000/svg" xmlns:xlink="http://www.w3.org/1999/xlink" x="0px" y="0px"
	 width="100%" viewBox="0 0 225 225" enable-background="new 0 0 225 225" xml:space="preserve">
<path fill="#000000" opacity="1.000000" stroke="none" 
	d="
M127.000000,226.000000 
	C84.666672,226.000000 42.833340,226.000000 1.000006,226.000000 
	C1.000004,151.000000 1.000004,76.000015 1.000002,1.000016 
	C75.999992,1.000010 150.999985,1.000010 225.999969,1.000005 
	C225.999985,75.999985 225.999985,150.999969 226.000000,225.999969 
	C193.166672,226.000000 160.333328,226.000000 127.000000,226.000000 
M185.527679,145.905869 
	C185.618164,145.594147 185.708664,145.282425 186.129532,144.341095 
	C189.285858,137.157715 193.313049,130.214233 195.374725,122.729332 
	C197.866913,113.681458 198.176224,104.185890 194.936920,94.326164 
	C194.879059,93.894562 194.821213,93.462952 194.927994,92.283752 
	C193.960678,89.846939 192.993378,87.410133 191.960770,84.351379 
	C191.655151,83.871948 191.349518,83.392517 190.992935,82.200981 
	C190.004440,80.443848 189.015945,78.686714 187.949341,76.455505 
	C187.949341,76.455505 187.783096,76.004715 187.855164,75.503769 
	C187.586929,75.319099 187.318710,75.134430 186.964951,74.466164 
	C186.964951,74.466164 186.804016,74.002159 186.882034,73.511673 
	C186.724030,73.180466 186.461914,73.003922 185.828232,72.342278 
	C183.898499,69.895020 181.968765,67.447762 180.039780,64.961975 
	C180.039780,64.961975 180.001236,64.962402 179.873672,64.474152 
	C179.592621,64.309532 179.311569,64.144905 179.009537,63.983948 
	C179.009537,63.983948 179.015396,63.962635 178.813705,63.374195 
	C177.880997,62.574467 176.948288,61.774738 175.999786,61.003159 
	C175.999786,61.003159 176.028046,60.986633 175.893494,60.514610 
	C175.700577,60.156666 175.419983,60.063824 174.424942,59.939644 
	C171.959961,57.941330 169.494965,55.943016 166.945862,53.207321 
	C162.547394,50.237175 158.482941,46.455395 153.676224,44.477203 
	C145.386871,41.065742 136.804443,37.739971 128.030304,36.312454 
	C119.588394,34.938988 110.720840,35.592167 102.090324,36.141159 
	C94.219200,36.641842 86.224541,37.348553 78.392746,41.069206 
	C77.913231,41.357319 77.433716,41.645428 76.358414,42.045547 
	C75.895836,42.333195 75.433266,42.620842 74.295151,43.014847 
	C73.181946,43.661583 72.068741,44.308319 70.461151,45.069889 
	C70.302063,45.127453 70.142975,45.185017 69.509766,45.161667 
	C69.139244,45.339378 69.050598,45.609573 68.935722,46.592293 
	C67.957100,47.118931 66.978470,47.645565 65.325211,48.237904 
	C60.546688,52.153057 55.768166,56.068211 50.305843,60.040070 
	C49.196274,61.349384 48.086708,62.658699 46.348480,64.225952 
	C42.889378,69.457451 39.430275,74.688950 35.388157,80.178749 
	C35.319633,80.785515 35.251110,81.392281 35.030880,82.452881 
	C35.030880,82.452881 34.964748,82.926811 34.319366,83.251266 
	C33.879395,84.832909 33.439423,86.414558 32.358913,88.417778 
	C28.976189,99.506187 27.454544,110.659248 31.041082,122.790817 
	C33.015732,127.869881 34.990383,132.948944 37.027164,138.760162 
	C40.890278,146.242737 44.763489,153.716568 53.422089,157.919479 
	C53.671318,158.281494 53.920544,158.643494 54.052494,159.696426 
	C55.362671,160.803619 56.672844,161.910797 58.000000,163.000000 
	C58.000000,163.000000 57.983093,163.017761 58.191853,163.636459 
	C59.552181,164.619751 60.912510,165.603043 62.732986,167.124191 
	C71.498299,171.000641 80.263618,174.877106 89.674904,178.900116 
	C90.115440,178.929642 90.555977,178.959167 91.382385,179.692337 
	C94.613159,180.131546 97.856842,180.492645 101.072327,181.024307 
	C111.573822,182.760651 122.130554,182.981613 132.375153,180.112976 
	C141.375809,177.592667 150.081177,174.017807 159.305725,171.305023 
	C159.437759,171.434677 159.569809,171.564346 159.389389,172.077560 
	C159.094727,172.473160 158.800049,172.868759 158.285187,173.313324 
	C158.285187,173.313324 158.255661,173.536957 157.735733,173.921310 
	C154.833511,176.290390 151.931305,178.659485 148.301605,181.103775 
	C147.596054,182.032394 146.890503,182.961014 146.184952,183.889618 
	C147.969833,184.902542 149.641037,186.376495 151.559067,186.849442 
	C160.367081,189.021286 169.209244,191.097061 178.118896,192.786789 
	C180.586090,193.254684 183.327454,192.276886 187.044907,191.829895 
	C179.078751,178.686478 176.510696,165.795212 181.002106,152.002029 
	C181.002106,152.002029 181.027298,152.060379 181.524414,151.904510 
	C181.616272,151.602905 181.708145,151.301300 181.950714,150.551941 
	C181.950714,150.551941 182.033401,150.086792 182.539490,149.931473 
	C182.715210,149.639252 182.890915,149.347046 183.016754,149.010147 
	C183.016754,149.010147 183.028320,149.076111 183.550583,148.923828 
	C183.640732,148.608566 183.730865,148.293289 183.950912,147.540390 
	C183.950912,147.540390 184.022629,147.089539 184.547775,146.926041 
	C184.725082,146.617798 184.902390,146.309555 185.010147,146.008591 
	C185.010147,146.008591 185.019547,146.077881 185.527679,145.905869 
z"/>
<path fill="#49D79E" opacity="1.000000" stroke="none" 
	d="
M70.955536,44.955055 
	C72.068741,44.308319 73.181946,43.661583 74.744949,43.277134 
	C76.796494,45.026382 78.398232,46.513344 80.123154,48.317432 
	C82.137215,49.876556 83.961853,52.055428 85.930725,52.194656 
	C93.526093,52.731770 101.167229,52.694256 108.791908,52.726181 
	C118.369476,52.766289 127.950493,52.516304 137.524094,52.700260 
	C141.103622,52.769039 144.158981,52.516537 146.330688,48.939995 
	C148.106583,48.912277 149.554031,48.952873 150.714249,49.125561 
	C148.056076,52.768822 151.310898,53.097496 153.201355,53.660534 
	C155.711227,54.408051 158.392426,54.580376 161.320297,55.135601 
	C163.437057,54.829140 165.233521,54.386921 167.029984,53.944702 
	C169.494965,55.943016 171.959961,57.941330 174.888306,60.228683 
	C175.560654,60.697811 175.786118,60.854111 176.028046,60.986633 
	C176.028046,60.986633 175.999786,61.003159 176.049774,61.332672 
	C177.071655,62.429001 178.043518,63.195816 179.015396,63.962635 
	C179.015396,63.962635 179.009537,63.983948 179.159485,64.166946 
	C179.512589,64.585091 179.743195,64.789246 180.001236,64.962402 
	C180.001236,64.962402 180.039780,64.961975 179.901901,65.316025 
	C179.297058,66.547554 178.469589,67.406883 178.424332,68.305603 
	C178.205917,72.644073 175.749359,72.370987 172.323349,72.197708 
	C164.380661,71.795982 156.395569,71.883629 148.443710,72.189514 
	C145.416763,72.305954 142.655685,73.234978 140.715759,69.813560 
	C140.293793,69.069359 137.792740,68.496017 137.297134,68.960960 
	C133.326248,72.686264 130.807632,69.850822 128.233734,66.843712 
	C124.853333,72.082001 120.809418,68.943954 116.923943,68.447502 
	C114.476379,68.134781 111.940903,68.477226 109.446594,68.571548 
	C106.295685,68.690712 103.146545,68.856468 99.892471,68.661697 
	C97.117203,63.637665 94.207169,67.425926 91.561501,67.511581 
	C89.230591,66.038139 86.583611,64.313217 84.278168,64.688179 
	C72.783005,66.557770 61.526356,67.577942 51.017429,60.743904 
	C51.003555,60.321327 50.996597,60.152344 50.989639,59.983364 
	C55.768166,56.068211 60.546688,52.153057 65.684944,48.577568 
	C66.286064,52.036686 68.479691,52.400032 70.692360,51.660183 
	C72.267288,51.133579 73.531029,49.676304 74.933640,48.634377 
	C73.607605,47.407936 72.281570,46.181496 70.955536,44.955055 
M105.617470,67.099884 
	C106.041054,66.590866 106.464630,66.081856 106.888214,65.572845 
	C105.325935,65.572845 103.763664,65.572845 102.201385,65.572845 
	C102.202156,65.901108 102.202927,66.229362 102.203697,66.557625 
	C103.133850,66.723289 104.064003,66.888962 105.617470,67.099884 
M170.232651,63.390064 
	C171.041351,63.864891 171.850037,64.339722 172.658722,64.814552 
	C172.797653,64.423218 172.936584,64.031891 173.075516,63.640564 
	C172.270294,63.493301 171.465088,63.346039 170.232651,63.390064 
M170.079193,60.507473 
	C170.079193,60.507473 170.023071,60.570442 170.079193,60.507473 
z"/>
<path fill="#6DD290" opacity="1.000000" stroke="none" 
	d="
M182.033401,150.086792 
	C182.033401,150.086792 181.950714,150.551941 181.726715,150.937836 
	C181.311722,151.548309 181.153259,151.793854 181.027298,152.060379 
	C181.027298,152.060379 181.002106,152.002029 180.691299,152.145782 
	C179.247681,155.529175 178.114853,158.768845 176.584564,161.970581 
	C174.055054,161.704117 171.146957,160.475204 169.926605,161.421906 
	C164.904510,165.317795 159.884369,161.567734 154.923553,161.933563 
	C146.763687,162.535278 138.488159,161.528091 130.259430,161.259415 
	C127.473282,161.168457 124.632080,161.599731 121.900780,161.205399 
	C112.947235,159.912720 103.795227,162.843323 94.874008,159.554260 
	C92.230598,158.579681 88.923981,159.403992 85.921265,159.403992 
	C85.962837,159.519257 86.004402,159.634506 86.045975,159.749771 
	C82.063339,160.503464 78.080696,161.257141 74.148010,162.001389 
	C74.327522,162.733566 74.540474,163.602127 74.797432,164.650208 
	C71.614250,164.664764 67.011002,158.972931 66.688156,166.947571 
	C65.580788,166.577805 64.786285,166.273743 63.920525,165.699860 
	C63.559181,164.957657 63.269096,164.485291 62.622635,163.935333 
	C60.838539,163.577744 59.410816,163.297745 57.983093,163.017761 
	C57.983093,163.017761 58.000000,163.000000 57.920719,162.686813 
	C56.617550,161.250931 55.393661,160.128220 54.169769,159.005508 
	C53.920544,158.643494 53.671318,158.281494 53.530094,157.547150 
	C53.617020,156.551163 53.839550,155.561539 53.537285,155.360306 
	C50.415119,153.282043 46.116047,152.196335 47.390396,146.983154 
	C56.996975,143.995728 66.050812,145.051956 75.027382,148.408813 
	C74.909988,151.734406 75.921005,153.232712 79.193550,152.482132 
	C82.102798,151.814896 85.079742,151.442764 88.399612,150.923798 
	C91.498482,149.283798 94.224548,147.660355 96.974777,146.013977 
	C96.998940,145.991043 97.043381,145.941391 97.476776,145.936340 
	C109.736809,147.736221 121.515465,148.670273 133.320221,144.137512 
	C136.526199,144.157501 139.399353,143.906067 142.267624,143.953094 
	C145.835419,144.011581 149.397385,144.360107 152.965042,144.506104 
	C160.366852,144.809036 167.796249,144.791656 175.159027,145.489334 
	C177.530334,145.714020 179.728409,147.766602 182.005859,149.259094 
	C182.015106,149.719070 182.024246,149.902939 182.033401,150.086792 
z"/>
<path fill="#73D08E" opacity="1.000000" stroke="none" 
	d="
M67.001015,167.013290 
	C67.011002,158.972931 71.614250,164.664764 74.797432,164.650208 
	C74.540474,163.602127 74.327522,162.733566 74.148010,162.001389 
	C78.080696,161.257141 82.063339,160.503464 86.045975,159.749771 
	C86.004402,159.634506 85.962837,159.519257 85.921265,159.403992 
	C88.923981,159.403992 92.230598,158.579681 94.874008,159.554260 
	C103.795227,162.843323 112.947235,159.912720 121.900780,161.205399 
	C124.632080,161.599731 127.473282,161.168457 130.259430,161.259415 
	C138.488159,161.528091 146.763687,162.535278 154.923553,161.933563 
	C159.884369,161.567734 164.904510,165.317795 169.926605,161.421906 
	C171.146957,160.475204 174.055054,161.704117 176.589203,162.424286 
	C177.335266,166.877777 178.026184,170.850159 177.906357,174.797928 
	C177.820450,177.627396 176.999573,180.596985 175.747864,183.128967 
	C175.375763,183.881668 170.985535,183.746918 170.886154,183.371017 
	C169.343613,177.537582 164.769913,179.470871 161.190033,179.536499 
	C158.453644,179.586639 155.732697,180.478516 153.123581,180.680573 
	C154.913406,178.089096 156.584534,175.813019 158.255661,173.536957 
	C158.255661,173.536957 158.285187,173.313324 158.785065,173.373688 
	C160.106506,173.373718 161.062714,173.560226 161.721161,173.200958 
	C163.035583,172.483795 164.802155,171.685165 165.218826,170.508347 
	C165.580185,169.487762 164.643402,167.117279 163.724335,166.755325 
	C162.531937,166.285706 160.709305,167.017166 159.298309,167.582138 
	C156.025253,168.892670 152.340042,172.151611 149.739456,171.408707 
	C146.501602,170.483765 145.136673,171.253464 142.880295,172.813828 
	C139.978256,174.820618 136.754135,177.391510 133.506790,177.645065 
	C127.563454,178.109146 121.483337,176.542068 115.493149,176.753540 
	C107.311493,177.042374 99.160599,178.202255 90.996513,178.988708 
	C90.555977,178.959167 90.115440,178.929642 89.294281,178.485229 
	C86.985954,176.220154 85.188202,174.201157 83.083420,172.581009 
	C81.750656,171.555130 79.697624,170.217285 78.422020,170.587036 
	C73.635468,171.974426 70.120857,170.389252 67.001015,167.013290 
z"/>
<path fill="#51D39B" opacity="1.000000" stroke="none" 
	d="
M99.996643,69.002136 
	C103.146545,68.856468 106.295685,68.690712 109.446594,68.571548 
	C111.940903,68.477226 114.476379,68.134781 116.923943,68.447502 
	C120.809418,68.943954 124.853333,72.082001 128.233734,66.843712 
	C130.807632,69.850822 133.326248,72.686264 137.297134,68.960960 
	C137.792740,68.496017 140.293793,69.069359 140.715759,69.813560 
	C142.655685,73.234978 145.416763,72.305954 148.443710,72.189514 
	C156.395569,71.883629 164.380661,71.795982 172.323349,72.197708 
	C175.749359,72.370987 178.205917,72.644073 178.424332,68.305603 
	C178.469589,67.406883 179.297058,66.547554 179.901520,65.335289 
	C181.968765,67.447762 183.898499,69.895020 186.055908,72.846191 
	C186.428345,73.590363 186.601822,73.807716 186.804016,74.002159 
	C186.804016,74.002159 186.964951,74.466164 187.109741,74.896233 
	C187.404266,75.573051 187.580460,75.799194 187.783096,76.004715 
	C187.783096,76.004715 187.949341,76.455505 187.993958,77.056168 
	C189.040329,79.408920 190.042099,81.161003 191.043884,82.913086 
	C191.349518,83.392517 191.655151,83.871948 191.981369,85.064819 
	C191.994919,86.853142 191.987869,87.928040 191.626038,88.970840 
	C189.512909,88.293060 187.754562,87.647362 186.061127,86.666626 
	C186.675095,82.967087 186.800293,79.878815 181.645844,80.056732 
	C178.526062,83.507385 175.020691,83.731728 170.936768,83.112740 
	C167.028366,82.520355 162.907776,82.504707 160.571274,86.854469 
	C160.514725,86.959763 160.006760,86.822563 159.647446,86.793449 
	C159.503006,85.404274 159.359131,84.020378 159.217178,82.655144 
	C151.843536,83.023895 151.466400,83.483047 151.670151,90.912422 
	C150.325302,89.691284 149.070877,88.770576 148.266846,87.552567 
	C137.243958,70.854088 111.657578,67.142731 94.920059,74.265327 
	C87.164490,77.565704 82.111610,83.834648 75.781754,88.901688 
	C74.356743,87.635315 73.175552,86.473732 71.994354,85.312157 
	C71.579773,86.683571 71.269821,88.098900 70.718483,89.412933 
	C70.252281,90.524025 69.716194,91.848579 68.799599,92.429688 
	C68.311043,92.739449 66.897324,91.761612 65.995636,91.210396 
	C64.385735,90.226242 62.914185,88.361786 61.266472,88.217613 
	C56.558083,87.805641 51.790276,88.072731 47.028706,88.072731 
	C46.821808,90.346603 46.602886,92.752655 46.487480,94.020996 
	C42.406258,91.881439 38.704224,89.940666 35.003349,87.577011 
	C34.991253,85.745010 34.978001,84.335915 34.964752,82.926811 
	C34.964748,82.926811 35.030880,82.452881 35.259094,81.989044 
	C35.648598,80.990295 35.809883,80.455368 35.971169,79.920448 
	C39.430275,74.688950 42.889378,69.457451 46.720955,64.154938 
	C47.093430,64.083923 47.210835,64.198715 47.148804,64.569580 
	C46.957832,65.589836 46.908524,66.267754 46.687691,66.884232 
	C44.355713,73.394188 45.348225,74.915070 52.160133,74.985687 
	C57.793903,75.044113 63.429268,74.952332 69.062950,75.014778 
	C73.801575,75.067291 79.112793,73.550323 81.806931,80.453087 
	C83.298424,77.034271 83.738350,73.508949 85.608856,72.402832 
	C87.740379,71.142365 91.147751,72.039421 94.341713,71.952438 
	C95.456085,70.938103 96.229355,69.970116 97.376923,69.002228 
	C98.499695,69.002258 99.248169,69.002197 99.996643,69.002136 
M87.251892,75.147896 
	C87.099983,75.037895 86.948074,74.927902 86.796158,74.817909 
	C86.891846,74.978600 86.987534,75.139290 87.251892,75.147896 
z"/>
<path fill="#45D7A0" opacity="1.000000" stroke="none" 
	d="
M79.999977,48.000305 
	C78.398232,46.513344 76.796494,45.026382 75.082718,43.223957 
	C75.433266,42.620842 75.895836,42.333195 76.845848,42.118958 
	C77.892677,41.861713 78.452080,41.531063 79.011475,41.200417 
	C86.224541,37.348553 94.219200,36.641842 102.090324,36.141159 
	C110.720840,35.592167 119.588394,34.938988 128.030304,36.312454 
	C136.804443,37.739971 145.386871,41.065742 153.676224,44.477203 
	C158.482941,46.455395 162.547394,50.237175 166.987915,53.576012 
	C165.233521,54.386921 163.437057,54.829140 161.306656,54.742348 
	C159.564056,52.816185 158.365631,51.020206 156.686935,50.135361 
	C155.046814,49.270859 152.916565,49.336273 151.001465,48.993473 
	C149.554031,48.952873 148.106583,48.912277 145.932693,48.973198 
	C143.073395,49.264732 140.816605,50.002178 138.828659,49.552135 
	C129.037750,47.335632 119.289200,47.218422 109.373497,48.694828 
	C105.112297,49.329304 100.677963,48.801041 96.322289,48.801041 
	C96.275902,48.265991 96.229507,47.730942 96.183121,47.195892 
	C100.046684,46.583229 103.910248,45.970562 107.773811,45.357899 
	C105.509331,43.837681 103.159462,43.020100 100.850716,43.123222 
	C97.498070,43.272976 92.372345,42.952854 91.187012,44.836685 
	C87.990608,49.916668 84.326897,49.160297 79.999977,48.000305 
z"/>
<path fill="#66D091" opacity="1.000000" stroke="none" 
	d="
M182.005737,148.982971 
	C179.728409,147.766602 177.530334,145.714020 175.159027,145.489334 
	C167.796249,144.791656 160.366852,144.809036 152.965042,144.506104 
	C149.397385,144.360107 145.835419,144.011581 142.267624,143.953094 
	C139.399353,143.906067 136.526199,144.157501 133.575562,143.906464 
	C137.338013,140.699081 141.180115,137.861755 145.338654,134.945969 
	C147.087311,133.893799 148.519547,132.920120 150.240402,132.129196 
	C156.836777,132.775589 154.420547,127.980629 154.962799,124.964462 
	C154.968353,124.963318 154.944046,124.939018 155.260559,125.086273 
	C157.562805,126.793121 159.633575,129.775238 161.519379,129.662521 
	C169.099823,129.209488 176.443634,131.488678 184.308868,129.878525 
	C190.914505,128.526245 193.360428,125.938072 193.751907,119.972733 
	C193.795044,119.315277 193.916458,118.662956 194.200348,117.680649 
	C194.583771,112.227997 194.768417,107.102951 194.946594,101.644676 
	C194.930954,100.867157 194.921768,100.422874 194.914520,99.743553 
	C194.916458,99.508522 194.896286,99.038879 194.893982,98.691269 
	C194.885986,97.880211 194.880325,97.416763 194.877716,96.733200 
	C194.880798,96.513084 194.855423,96.073540 194.891876,95.798553 
	C194.958313,95.341080 194.988312,95.158600 195.018311,94.976112 
	C198.176224,104.185890 197.866913,113.681458 195.374725,122.729332 
	C193.313049,130.214233 189.285858,137.157715 185.811386,144.823975 
	C185.301056,145.542801 185.143158,145.799805 185.019547,146.077881 
	C185.019547,146.077881 185.010147,146.008591 184.845535,146.163574 
	C184.461502,146.575546 184.242065,146.832550 184.022629,147.089539 
	C184.022629,147.089539 183.950912,147.540390 183.731552,147.925659 
	C183.318314,148.545364 183.157028,148.800430 183.028320,149.076111 
	C183.028320,149.076111 183.016754,149.010147 182.776794,149.007141 
	C182.359787,148.997086 182.182755,148.990036 182.005737,148.982971 
z"/>
<path fill="#61D296" opacity="1.000000" stroke="none" 
	d="
M31.192520,121.995010 
	C27.454544,110.659248 28.976189,99.506187 32.735977,88.262527 
	C33.113037,88.107269 33.226974,88.217949 33.170116,88.625778 
	C32.060730,96.604996 31.008202,104.176392 30.060352,110.994766 
	C33.788940,111.790535 36.587746,112.797333 39.422245,112.910576 
	C46.039932,113.174965 52.698620,112.675629 59.293598,113.146019 
	C63.166042,113.422226 66.397095,113.191414 68.954224,110.439301 
	C70.009575,113.889900 71.044106,116.926582 72.057190,119.979660 
	C72.035744,119.996071 72.053802,119.945671 72.042755,120.343414 
	C73.039101,123.832672 74.046486,126.924194 74.738510,129.896118 
	C72.511642,128.501343 69.087936,125.935715 68.912125,126.141731 
	C65.475319,130.169052 60.920437,129.040512 56.774944,128.916779 
	C51.527317,128.760162 46.888660,129.479340 44.287067,133.938889 
	C40.968422,132.179993 37.979881,130.596069 34.764626,128.757019 
	C33.422783,126.332939 32.307652,124.163979 31.192520,121.995010 
z"/>
<path fill="#55D79A" opacity="1.000000" stroke="none" 
	d="
M194.912582,99.978584 
	C194.921768,100.422874 194.930954,100.867157 194.532654,101.610420 
	C183.007462,101.979095 171.889175,102.117020 160.772781,102.025543 
	C159.493362,102.015015 158.224487,100.726044 156.818451,99.751350 
	C155.846649,98.648933 155.007126,97.824982 154.097626,96.637192 
	C153.341766,94.540436 152.655884,92.807526 151.970001,91.074623 
	C151.466400,83.483047 151.843536,83.023895 159.217178,82.655144 
	C159.359131,84.020378 159.503006,85.404274 159.647446,86.793449 
	C160.006760,86.822563 160.514725,86.959763 160.571274,86.854469 
	C162.907776,82.504707 167.028366,82.520355 170.936768,83.112740 
	C175.020691,83.731728 178.526062,83.507385 181.633423,80.465012 
	C181.374664,84.625031 180.774155,88.432892 180.173660,92.240746 
	C180.788483,92.426620 181.403320,92.612503 182.018143,92.798378 
	C183.344162,90.866135 184.670197,88.933891 185.996231,87.001656 
	C187.754562,87.647362 189.512909,88.293060 191.658173,89.308640 
	C192.951187,90.796120 193.857269,91.913734 194.763367,93.031349 
	C194.821213,93.462952 194.879059,93.894562 194.977615,94.651138 
	C194.988312,95.158600 194.958313,95.341080 194.834274,95.901192 
	C194.674133,96.523170 194.718933,96.748001 194.874649,96.953308 
	C194.880325,97.416763 194.885986,97.880211 194.832092,98.801727 
	C194.698639,99.519775 194.745331,99.759369 194.912582,99.978584 
M157.512283,90.264038 
	C157.874725,90.967537 158.237167,91.671036 158.599594,92.374535 
	C158.924362,92.099480 159.249130,91.824432 159.573883,91.549385 
	C159.001846,91.011467 158.429810,90.473541 157.512283,90.264038 
z"/>
<path fill="#77C889" opacity="1.000000" stroke="none" 
	d="
M153.004883,180.995972 
	C155.732697,180.478516 158.453644,179.586639 161.190033,179.536499 
	C164.769913,179.470871 169.343613,177.537582 170.886154,183.371017 
	C170.985535,183.746918 175.375763,183.881668 175.747864,183.128967 
	C176.999573,180.596985 177.820450,177.627396 177.906357,174.797928 
	C178.026184,170.850159 177.335266,166.877777 176.986664,162.462219 
	C178.114853,158.768845 179.247681,155.529175 180.718597,152.162048 
	C176.510696,165.795212 179.078751,178.686478 187.044907,191.829895 
	C183.327454,192.276886 180.586090,193.254684 178.118896,192.786789 
	C169.209244,191.097061 160.367081,189.021286 151.559067,186.849442 
	C149.641037,186.376495 147.969833,184.902542 146.184937,183.889618 
	C146.890503,182.961014 147.596054,182.032394 148.728195,181.126831 
	C149.154785,181.149872 149.280609,181.271011 149.259079,181.552124 
	C151.220490,184.867249 152.060745,182.722412 152.997406,181.002213 
	C152.999680,181.000275 153.004883,180.995956 153.004883,180.995972 
z"/>
<path fill="#77C889" opacity="1.000000" stroke="none" 
	d="
M91.189453,179.340530 
	C99.160599,178.202255 107.311493,177.042374 115.493149,176.753540 
	C121.483337,176.542068 127.563454,178.109146 133.506790,177.645065 
	C136.754135,177.391510 139.978256,174.820618 142.880295,172.813828 
	C145.136673,171.253464 146.501602,170.483765 149.739456,171.408707 
	C152.340042,172.151611 156.025253,168.892670 159.298309,167.582138 
	C160.709305,167.017166 162.531937,166.285706 163.724335,166.755325 
	C164.643402,167.117279 165.580185,169.487762 165.218826,170.508347 
	C164.802155,171.685165 163.035583,172.483795 161.721161,173.200958 
	C161.062714,173.560226 160.106506,173.373718 158.895172,173.349197 
	C158.800049,172.868759 159.094727,172.473160 159.779724,171.700836 
	C160.321564,170.962555 160.473083,170.600998 160.624603,170.239441 
	C160.055374,170.462524 159.486176,170.685608 158.916962,170.908691 
	C150.081177,174.017807 141.375809,177.592667 132.375153,180.112976 
	C122.130554,182.981613 111.573822,182.760651 101.072327,181.024307 
	C97.856842,180.492645 94.613159,180.131546 91.189453,179.340530 
z"/>
<path fill="#77C889" opacity="1.000000" stroke="none" 
	d="
M66.688156,166.947571 
	C70.120857,170.389252 73.635468,171.974426 78.422020,170.587036 
	C79.697624,170.217285 81.750656,171.555130 83.083420,172.581009 
	C85.188202,174.201157 86.985954,176.220154 88.971298,178.411957 
	C80.263618,174.877106 71.498299,171.000641 62.701054,166.696320 
	C62.798782,166.159531 62.928444,166.050613 63.291435,165.951843 
	C63.524757,165.961990 63.991783,165.969696 63.991783,165.969696 
	C64.786285,166.273743 65.580788,166.577805 66.688156,166.947571 
z"/>
<path fill="#6BCB8E" opacity="1.000000" stroke="none" 
	d="
M46.991631,146.994293 
	C46.116047,152.196335 50.415119,153.282043 53.537285,155.360306 
	C53.839550,155.561539 53.617020,156.551163 53.365536,157.255585 
	C44.763489,153.716568 40.890278,146.242737 37.056667,138.347382 
	C37.086170,137.934601 37.207119,137.840942 37.499123,138.011108 
	C40.857960,141.118942 43.924793,144.056625 46.991631,146.994293 
z"/>
<path fill="#43D69E" opacity="1.000000" stroke="none" 
	d="
M70.708344,45.012474 
	C72.281570,46.181496 73.607605,47.407936 74.933640,48.634377 
	C73.531029,49.676304 72.267288,51.133579 70.692360,51.660183 
	C68.479691,52.400032 66.286064,52.036686 66.022263,48.544716 
	C66.978470,47.645565 67.957100,47.118931 69.224808,46.172806 
	C69.687958,45.599083 69.844620,45.428833 69.983887,45.242577 
	C70.142975,45.185017 70.302063,45.127453 70.708344,45.012474 
z"/>
<path fill="#6BCB8E" opacity="1.000000" stroke="none" 
	d="
M31.116802,122.392914 
	C32.307652,124.163979 33.422783,126.332939 34.845795,129.123016 
	C35.838158,132.443069 36.522636,135.142014 37.207119,137.840942 
	C37.207119,137.840942 37.086170,137.934601 37.025600,137.981308 
	C34.990383,132.948944 33.015732,127.869881 31.116802,122.392914 
z"/>
<path fill="#77C889" opacity="1.000000" stroke="none" 
	d="
M157.995697,173.729126 
	C156.584534,175.813019 154.913406,178.089096 153.123581,180.680573 
	C153.004883,180.995956 152.999680,181.000275 152.621887,181.003754 
	C151.256271,181.095154 150.268433,181.183075 149.280609,181.270996 
	C149.280609,181.271011 149.154785,181.149872 149.091934,181.089218 
	C151.931305,178.659485 154.833511,176.290390 157.995697,173.729126 
z"/>
<path fill="#5CD397" opacity="1.000000" stroke="none" 
	d="
M194.845673,92.657547 
	C193.857269,91.913734 192.951187,90.796120 192.012955,89.340721 
	C191.987869,87.928040 191.994919,86.853142 192.014008,85.375786 
	C192.993378,87.410133 193.960678,89.846939 194.845673,92.657547 
z"/>
<path fill="#77C889" opacity="1.000000" stroke="none" 
	d="
M58.087471,163.327118 
	C59.410816,163.297745 60.838539,163.577744 62.631996,164.257111 
	C63.017857,165.084885 63.037983,165.513290 63.058109,165.941696 
	C62.928444,166.050613 62.798782,166.159531 62.470978,166.427399 
	C60.912510,165.603043 59.552181,164.619751 58.087471,163.327118 
z"/>
<path fill="#77C889" opacity="1.000000" stroke="none" 
	d="
M54.111130,159.350967 
	C55.393661,160.128220 56.617550,161.250931 57.912231,162.695801 
	C56.672844,161.910797 55.362671,160.803619 54.111130,159.350967 
z"/>
<path fill="#5CD397" opacity="1.000000" stroke="none" 
	d="
M191.018402,82.557037 
	C190.042099,81.161003 189.040329,79.408920 188.033020,77.293213 
	C189.015945,78.686714 190.004440,80.443848 191.018402,82.557037 
z"/>
<path fill="#61D296" opacity="1.000000" stroke="none" 
	d="
M34.642059,83.089035 
	C34.978001,84.335915 34.991253,85.745010 34.705158,87.599434 
	C34.012867,88.102486 33.619919,88.160217 33.226974,88.217949 
	C33.226974,88.217949 33.113037,88.107269 33.056244,88.051735 
	C33.439423,86.414558 33.879395,84.832909 34.642059,83.089035 
z"/>
<path fill="#51D39B" opacity="1.000000" stroke="none" 
	d="
M50.647743,60.011719 
	C50.996597,60.152344 51.003555,60.321327 50.809978,60.995331 
	C49.476574,62.399807 48.343704,63.299259 47.210835,64.198715 
	C47.210835,64.198715 47.093430,64.083923 47.035286,64.025970 
	C48.086708,62.658699 49.196274,61.349384 50.647743,60.011719 
z"/>
<path fill="#51D39B" opacity="1.000000" stroke="none" 
	d="
M178.914551,63.668415 
	C178.043518,63.195816 177.071655,62.429001 176.057678,61.318596 
	C176.948288,61.774738 177.880997,62.574467 178.914551,63.668415 
z"/>
<path fill="#49D79E" opacity="1.000000" stroke="none" 
	d="
M78.702110,41.134811 
	C78.452080,41.531063 77.892677,41.861713 77.143738,42.062950 
	C77.433716,41.645428 77.913231,41.357319 78.702110,41.134811 
z"/>
<path fill="#61D296" opacity="1.000000" stroke="none" 
	d="
M35.679665,80.049599 
	C35.809883,80.455368 35.648598,80.990295 35.334953,81.762131 
	C35.251110,81.392281 35.319633,80.785515 35.679665,80.049599 
z"/>
<path fill="#49D79E" opacity="1.000000" stroke="none" 
	d="
M69.746826,45.202122 
	C69.844620,45.428833 69.687958,45.599083 69.378868,45.862789 
	C69.050598,45.609573 69.139244,45.339378 69.746826,45.202122 
z"/>
<path fill="#5CD397" opacity="1.000000" stroke="none" 
	d="
M187.819122,75.754242 
	C187.580460,75.799194 187.404266,75.573051 187.152496,75.138031 
	C187.318710,75.134430 187.586929,75.319099 187.819122,75.754242 
z"/>
<path fill="#51D39B" opacity="1.000000" stroke="none" 
	d="
M179.937454,64.718277 
	C179.743195,64.789246 179.512589,64.585091 179.169968,64.165115 
	C179.311569,64.144905 179.592621,64.309532 179.937454,64.718277 
z"/>
<path fill="#77C889" opacity="1.000000" stroke="none" 
	d="
M181.275848,151.982452 
	C181.153259,151.793854 181.311722,151.548309 181.651352,151.161713 
	C181.708145,151.301300 181.616272,151.602905 181.275848,151.982452 
z"/>
<path fill="#77C889" opacity="1.000000" stroke="none" 
	d="
M182.005859,149.259094 
	C182.182755,148.990036 182.359787,148.997086 182.801727,149.029480 
	C182.890915,149.347046 182.715210,149.639252 182.286438,150.009125 
	C182.024246,149.902939 182.015106,149.719070 182.005859,149.259094 
z"/>
<path fill="#51D39B" opacity="1.000000" stroke="none" 
	d="
M175.960770,60.750622 
	C175.786118,60.854111 175.560654,60.697811 175.201691,60.376907 
	C175.419983,60.063824 175.700577,60.156666 175.960770,60.750622 
z"/>
<path fill="#77C889" opacity="1.000000" stroke="none" 
	d="
M183.289459,148.999969 
	C183.157028,148.800430 183.318314,148.545364 183.666595,148.144470 
	C183.730865,148.293289 183.640732,148.608566 183.289459,148.999969 
z"/>
<path fill="#77C889" opacity="1.000000" stroke="none" 
	d="
M184.285202,147.007782 
	C184.242065,146.832550 184.461502,146.575546 184.880310,146.159927 
	C184.902390,146.309555 184.725082,146.617798 184.285202,147.007782 
z"/>
<path fill="#77C889" opacity="1.000000" stroke="none" 
	d="
M185.273621,145.991882 
	C185.143158,145.799805 185.301056,145.542801 185.646194,145.138794 
	C185.708664,145.282425 185.618164,145.594147 185.273621,145.991882 
z"/>
<path fill="#5CD397" opacity="1.000000" stroke="none" 
	d="
M186.843018,73.756912 
	C186.601822,73.807716 186.428345,73.590363 186.189636,73.166077 
	C186.461914,73.003922 186.724030,73.180466 186.843018,73.756912 
z"/>
<path fill="#4DD79C" opacity="1.000000" stroke="none" 
	d="
M47.148804,64.569580 
	C48.343704,63.299259 49.476574,62.399807 50.816895,61.248924 
	C61.526356,67.577942 72.783005,66.557770 84.278168,64.688179 
	C86.583611,64.313217 89.230591,66.038139 91.561501,67.511581 
	C94.207169,67.425926 97.117203,63.637665 99.892471,68.661697 
	C99.248169,69.002197 98.499695,69.002258 97.035797,69.048584 
	C95.547119,70.062828 94.773865,71.030807 94.000610,71.998779 
	C91.147751,72.039421 87.740379,71.142365 85.608856,72.402832 
	C83.738350,73.508949 83.298424,77.034271 81.806931,80.453087 
	C79.112793,73.550323 73.801575,75.067291 69.062950,75.014778 
	C63.429268,74.952332 57.793903,75.044113 52.160133,74.985687 
	C45.348225,74.915070 44.355713,73.394188 46.687691,66.884232 
	C46.908524,66.267754 46.957832,65.589836 47.148804,64.569580 
M81.501808,76.525009 
	C81.501808,76.525009 81.488609,76.487106 81.501808,76.525009 
z"/>
<path fill="#47D89F" opacity="1.000000" stroke="none" 
	d="
M80.123154,48.317432 
	C84.326897,49.160297 87.990608,49.916668 91.187012,44.836685 
	C92.372345,42.952854 97.498070,43.272976 100.850716,43.123222 
	C103.159462,43.020100 105.509331,43.837681 107.773811,45.357899 
	C103.910248,45.970562 100.046684,46.583229 96.183121,47.195892 
	C96.229507,47.730942 96.275902,48.265991 96.322289,48.801041 
	C100.677963,48.801041 105.112297,49.329304 109.373497,48.694828 
	C119.289200,47.218422 129.037750,47.335632 138.828659,49.552135 
	C140.816605,50.002178 143.073395,49.264732 145.604248,49.041512 
	C144.158981,52.516537 141.103622,52.769039 137.524094,52.700260 
	C127.950493,52.516304 118.369476,52.766289 108.791908,52.726181 
	C101.167229,52.694256 93.526093,52.731770 85.930725,52.194656 
	C83.961853,52.055428 82.137215,49.876556 80.123154,48.317432 
z"/>
<path fill="#47D89F" opacity="1.000000" stroke="none" 
	d="
M150.714249,49.125561 
	C152.916565,49.336273 155.046814,49.270859 156.686935,50.135361 
	C158.365631,51.020206 159.564056,52.816185 160.986359,54.606590 
	C158.392426,54.580376 155.711227,54.408051 153.201355,53.660534 
	C151.310898,53.097496 148.056076,52.768822 150.714249,49.125561 
z"/>
<path fill="#4DD79C" opacity="1.000000" stroke="none" 
	d="
M105.305817,67.077255 
	C104.064003,66.888962 103.133850,66.723289 102.203697,66.557625 
	C102.202927,66.229362 102.202156,65.901108 102.201385,65.572845 
	C103.763664,65.572845 105.325935,65.572845 106.888214,65.572845 
	C106.464630,66.081856 106.041054,66.590866 105.305817,67.077255 
z"/>
<path fill="#51D39B" opacity="1.000000" stroke="none" 
	d="
M170.446259,63.294418 
	C171.465088,63.346039 172.270294,63.493301 173.075516,63.640564 
	C172.936584,64.031891 172.797653,64.423218 172.658722,64.814552 
	C171.850037,64.339722 171.041351,63.864891 170.446259,63.294418 
z"/>
<path fill="#51D39B" opacity="1.000000" stroke="none" 
	d="
M170.051132,60.538956 
	C170.023071,60.570442 170.079193,60.507473 170.051132,60.538956 
z"/>
<path fill="#65D290" opacity="1.000000" stroke="none" 
	d="
M37.499123,138.011108 
	C36.522636,135.142014 35.838158,132.443069 35.072506,129.378143 
	C37.979881,130.596069 40.968422,132.179993 44.287067,133.938889 
	C46.888660,129.479340 51.527317,128.760162 56.774944,128.916779 
	C60.920437,129.040512 65.475319,130.169052 68.912125,126.141731 
	C69.087936,125.935715 72.511642,128.501343 74.866913,130.225830 
	C79.151764,135.934738 79.061905,141.524277 75.031952,148.012207 
	C66.050812,145.051956 56.996975,143.995728 47.390396,146.983154 
	C43.924793,144.056625 40.857960,141.118942 37.499123,138.011108 
z"/>
<path fill="#60AC80" opacity="1.000000" stroke="none" 
	d="
M145.022217,135.024445 
	C141.180115,137.861755 137.338013,140.699081 133.240555,143.767456 
	C121.515465,148.670273 109.736809,147.736221 97.435890,145.881348 
	C96.961617,145.831390 96.770248,145.851532 96.770248,145.851532 
	C96.770248,145.851532 96.950615,146.036911 96.950615,146.036911 
	C94.224548,147.660355 91.498482,149.283798 88.389328,150.626892 
	C87.998932,149.949158 87.991631,149.551758 88.350327,149.083344 
	C90.449585,148.354675 92.182846,147.697006 94.182671,146.938187 
	C91.285667,144.482574 88.924828,142.481445 86.563995,140.480301 
	C86.839989,139.946854 87.115982,139.413406 87.391975,138.879974 
	C107.736969,149.127319 127.033180,148.544525 144.979370,134.158279 
	C145.003418,134.639496 145.012817,134.831955 145.022217,135.024445 
z"/>
<path fill="#69BC88" opacity="1.000000" stroke="none" 
	d="
M87.984322,149.154358 
	C87.991631,149.551758 87.998932,149.949158 88.016518,150.643463 
	C85.079742,151.442764 82.102798,151.814896 79.193550,152.482132 
	C75.921005,153.232712 74.909988,151.734406 75.027382,148.408813 
	C79.061905,141.524277 79.151764,135.934738 75.182266,130.345428 
	C74.046486,126.924194 73.039101,123.832672 72.355560,120.507080 
	C74.776375,123.898964 77.338783,127.340332 78.866379,131.192093 
	C81.465981,137.746872 79.819374,144.227463 76.608788,151.232773 
	C80.850830,150.457718 84.417572,149.806030 87.984322,149.154358 
z"/>
<path fill="#73D08E" opacity="1.000000" stroke="none" 
	d="
M63.291435,165.951843 
	C63.037983,165.513290 63.017857,165.084885 62.988373,164.334702 
	C63.269096,164.485291 63.559181,164.957657 63.920525,165.699860 
	C63.991783,165.969696 63.524757,165.961990 63.291435,165.951843 
z"/>
<path fill="#000000" opacity="1.000000" stroke="none" 
	d="
M88.350327,149.083344 
	C84.417572,149.806030 80.850830,150.457718 76.608788,151.232773 
	C79.819374,144.227463 81.465981,137.746872 78.866379,131.192093 
	C77.338783,127.340332 74.776375,123.898964 72.366608,120.109344 
	C72.053802,119.945671 72.035744,119.996071 72.030701,119.548637 
	C69.757751,109.388222 70.801720,100.037277 75.061501,91.032532 
	C75.029976,91.023750 75.033165,91.089127 75.303185,91.015335 
	C75.659904,90.616035 75.746597,90.290535 75.885986,89.726318 
	C75.938683,89.487610 76.025558,89.006477 76.025558,89.006477 
	C82.111610,83.834648 87.164490,77.565704 94.920059,74.265327 
	C111.657578,67.142731 137.243958,70.854088 148.266846,87.552567 
	C149.070877,88.770576 150.325302,89.691284 151.670166,90.912422 
	C152.655884,92.807526 153.341766,94.540436 154.025681,97.060242 
	C156.723907,111.293045 155.303848,123.702774 144.964706,133.869507 
	C127.033180,148.544525 107.736969,149.127319 87.391975,138.879974 
	C87.115982,139.413406 86.839989,139.946854 86.563995,140.480301 
	C88.924828,142.481445 91.285667,144.482574 94.182671,146.938187 
	C92.182846,147.697006 90.449585,148.354675 88.350327,149.083344 
z"/>
<path fill="#58D598" opacity="1.000000" stroke="none" 
	d="
M75.781754,88.901688 
	C76.025558,89.006477 75.938683,89.487610 75.729507,89.897446 
	C75.306213,90.535660 75.143822,90.796280 75.033165,91.089127 
	C75.033165,91.089127 75.029976,91.023750 74.732132,91.139954 
	C68.894897,96.426476 69.117073,103.285408 68.933395,110.025383 
	C66.397095,113.191414 63.166042,113.422226 59.293598,113.146019 
	C52.698620,112.675629 46.039932,113.174965 39.422245,112.910576 
	C36.587746,112.797333 33.788940,111.790535 30.060352,110.994766 
	C31.008202,104.176392 32.060730,96.604996 33.170116,88.625778 
	C33.619919,88.160217 34.012867,88.102486 34.704002,88.022324 
	C38.704224,89.940666 42.406258,91.881439 46.487480,94.020996 
	C46.602886,92.752655 46.821808,90.346603 47.028706,88.072731 
	C51.790276,88.072731 56.558083,87.805641 61.266472,88.217613 
	C62.914185,88.361786 64.385735,90.226242 65.995636,91.210396 
	C66.897324,91.761612 68.311043,92.739449 68.799599,92.429688 
	C69.716194,91.848579 70.252281,90.524025 70.718483,89.412933 
	C71.269821,88.098900 71.579773,86.683571 71.994354,85.312157 
	C73.175552,86.473732 74.356743,87.635315 75.781754,88.901688 
z"/>
<path fill="#51D89B" opacity="1.000000" stroke="none" 
	d="
M186.061127,86.666626 
	C184.670197,88.933891 183.344162,90.866135 182.018143,92.798378 
	C181.403320,92.612503 180.788483,92.426620 180.173660,92.240746 
	C180.774155,88.432892 181.374664,84.625031 181.987579,80.408890 
	C186.800293,79.878815 186.675095,82.967087 186.061127,86.666626 
z"/>
<path fill="#49D79E" opacity="1.000000" stroke="none" 
	d="
M94.341713,71.952438 
	C94.773865,71.030807 95.547119,70.062828 96.661499,69.048492 
	C96.229355,69.970116 95.456085,70.938103 94.341713,71.952438 
z"/>
<path fill="#4DD79C" opacity="1.000000" stroke="none" 
	d="
M87.167557,75.223938 
	C86.987534,75.139290 86.891846,74.978600 86.796158,74.817909 
	C86.948074,74.927902 87.099983,75.037895 87.167557,75.223938 
z"/>
<path fill="#5CD397" opacity="1.000000" stroke="none" 
	d="
M156.950714,100.029816 
	C158.224487,100.726044 159.493362,102.015015 160.772781,102.025543 
	C171.889175,102.117020 183.007462,101.979095 194.539124,101.943649 
	C194.768417,107.102951 194.583771,112.227997 193.780792,117.691841 
	C189.903137,118.216377 186.645233,118.433243 183.384216,118.581490 
	C176.215424,118.907387 169.046646,119.249924 161.874313,119.470215 
	C159.923401,119.530136 157.959869,119.178909 156.091827,118.606956 
	C156.437927,112.141624 156.694321,106.085724 156.950714,100.029816 
z"/>
<path fill="#61D496" opacity="1.000000" stroke="none" 
	d="
M156.002121,119.016380 
	C157.959869,119.178909 159.923401,119.530136 161.874313,119.470215 
	C169.046646,119.249924 176.215424,118.907387 183.384216,118.581490 
	C186.645233,118.433243 189.903137,118.216377 193.582001,118.019447 
	C193.916458,118.662956 193.795044,119.315277 193.751907,119.972733 
	C193.360428,125.938072 190.914505,128.526245 184.308868,129.878525 
	C176.443634,131.488678 169.099823,129.209488 161.519379,129.662521 
	C159.633575,129.775238 157.562805,126.793121 155.265961,124.697632 
	C155.303940,122.446625 155.653030,120.731499 156.002121,119.016380 
z"/>
<path fill="#58B888" opacity="1.000000" stroke="none" 
	d="
M156.091827,118.606956 
	C155.653030,120.731499 155.303940,122.446625 154.949448,124.550385 
	C154.944046,124.939018 154.968353,124.963318 154.651459,125.081635 
	C152.873611,127.448769 151.412689,129.697601 149.951767,131.946426 
	C148.519547,132.920120 147.087311,133.893799 145.338654,134.945953 
	C145.012817,134.831955 145.003418,134.639496 144.979370,134.158279 
	C155.303848,123.702774 156.723907,111.293045 154.095642,97.424088 
	C155.007126,97.824982 155.846649,98.648933 156.818451,99.751350 
	C156.694321,106.085724 156.437927,112.141624 156.091827,118.606956 
z"/>
<path fill="#61D496" opacity="1.000000" stroke="none" 
	d="
M150.240402,132.129196 
	C151.412689,129.697601 152.873611,127.448769 154.645889,125.082779 
	C154.420547,127.980629 156.836777,132.775589 150.240402,132.129196 
z"/>
<path fill="#5CD397" opacity="1.000000" stroke="none" 
	d="
M194.914520,99.743553 
	C194.745331,99.759369 194.698639,99.519775 194.834396,99.149338 
	C194.896286,99.038879 194.916458,99.508522 194.914520,99.743553 
z"/>
<path fill="#5CD397" opacity="1.000000" stroke="none" 
	d="
M194.877716,96.733200 
	C194.718933,96.748001 194.674133,96.523170 194.797821,96.176178 
	C194.855423,96.073540 194.880798,96.513084 194.877716,96.733200 
z"/>
<path fill="#62B68C" opacity="1.000000" stroke="none" 
	d="
M68.954224,110.439301 
	C69.117073,103.285408 68.894897,96.426476 74.763657,91.148727 
	C70.801720,100.037277 69.757751,109.388222 72.052139,119.532227 
	C71.044106,116.926582 70.009575,113.889900 68.954224,110.439301 
z"/>
<path fill="#51D39B" opacity="1.000000" stroke="none" 
	d="
M157.685028,90.099831 
	C158.429810,90.473541 159.001846,91.011467 159.573883,91.549385 
	C159.249130,91.824432 158.924362,92.099480 158.599594,92.374535 
	C158.237167,91.671036 157.874725,90.967537 157.685028,90.099831 
z"/>
<path fill="#73D08E" opacity="1.000000" stroke="none" 
	d="
M149.259079,181.552124 
	C150.268433,181.183075 151.256271,181.095154 152.619598,181.005676 
	C152.060745,182.722412 151.220490,184.867249 149.259079,181.552124 
z"/>
<path fill="#000000" opacity="1.000000" stroke="none" 
	d="
M159.111343,171.106857 
	C159.486176,170.685608 160.055374,170.462524 160.624603,170.239441 
	C160.473083,170.600998 160.321564,170.962555 159.935944,171.509064 
	C159.569809,171.564346 159.437759,171.434677 159.111343,171.106857 
z"/>
<path fill="#51D39B" opacity="1.000000" stroke="none" 
	d="
M81.495209,76.506058 
	C81.488609,76.487106 81.501808,76.525009 81.495209,76.506058 
z"/>
<path fill="#6DD290" opacity="1.000000" stroke="none" 
	d="
M96.974777,146.013977 
	C96.950615,146.036911 96.770248,145.851532 96.770248,145.851532 
	C96.770248,145.851532 96.961617,145.831390 97.002502,145.886383 
	C97.043381,145.941391 96.998940,145.991043 96.974777,146.013977 
z"/>
<path fill="#62B68C" opacity="1.000000" stroke="none" 
	d="
M75.303185,91.015335 
	C75.143822,90.796280 75.306213,90.535660 75.676819,90.136154 
	C75.746597,90.290535 75.659904,90.616035 75.303185,91.015335 
z"/>
</svg>