<svg version="1.1" id="Layer_1" xmlns="http://www.w3.org/2000/svg" xmlns:xlink="http://www.w3.org/1999/xlink" x="0px" y="0px"
	 width="100%" viewBox="0 0 512 512" enable-background="new 0 0 512 512" xml:space="preserve">
<path fill="#FFFFFF" opacity="1.000000" stroke="none" 
	d="
M276.000000,513.000000 
	C184.022324,513.000000 92.544647,513.000000 1.033484,513.000000 
	C1.033484,342.397308 1.033484,171.794586 1.033484,1.095938 
	C171.561035,1.095938 342.122131,1.095938 512.841614,1.095938 
	C512.841614,171.666550 512.841614,342.333252 512.841614,513.000000 
	C434.127899,513.000000 355.313934,513.000000 276.000000,513.000000 
M109.472473,140.104675 
	C109.307716,140.400360 109.142960,140.696030 108.525925,141.164246 
	C108.247261,141.356339 108.065117,141.616104 107.333740,142.181549 
	C101.755890,149.748871 96.178040,157.316208 90.054688,165.239258 
	C82.007355,177.337173 76.460625,190.594009 72.391724,204.453812 
	C71.019341,209.128540 70.705505,214.114014 69.429237,219.058258 
	C69.284752,219.707230 69.140274,220.356186 68.791786,221.656601 
	C68.668358,222.766525 68.544930,223.876465 67.988228,225.698593 
	C65.742874,238.929153 65.792328,252.200607 67.959251,265.395325 
	C69.106743,272.382568 71.115150,279.228424 72.721275,286.916656 
	C72.834175,287.942932 72.947067,288.969177 72.373032,289.902466 
	C71.436264,289.427673 70.499496,288.952850 68.482048,287.930267 
	C69.267204,292.977753 69.380524,297.178619 70.604782,301.025909 
	C80.195580,331.165375 92.882919,359.580597 116.350624,381.920532 
	C121.273010,386.606415 125.280258,392.352264 130.554382,396.547058 
	C138.569962,402.922180 147.093414,408.744446 155.827637,414.106903 
	C165.151215,419.831207 174.540085,425.874542 184.676605,429.746918 
	C198.853912,435.163055 213.606659,439.294830 228.385574,442.841125 
	C239.421234,445.489227 250.841034,447.163727 262.173004,447.807953 
	C280.749084,448.863983 299.273254,447.534882 317.528625,443.356171 
	C328.507294,440.843109 339.301300,440.240448 348.257355,449.116577 
	C356.386841,457.173492 367.299530,459.738220 377.587219,463.130219 
	C386.011383,465.907745 394.893738,467.718689 403.714172,468.746307 
	C411.684418,469.674866 419.889679,469.483154 427.909119,468.808350 
	C434.315308,468.269318 439.867798,465.309448 443.466949,459.310150 
	C448.188354,451.440247 450.403809,443.383270 448.098053,434.166199 
	C445.733459,424.713776 443.677856,415.163452 441.983368,405.568359 
	C438.763123,387.333282 442.470276,370.519531 452.425964,354.807465 
	C462.961456,338.180298 471.305786,320.397827 476.246002,301.306641 
	C480.174377,286.125610 480.458618,270.466705 479.994873,254.838379 
	C479.595123,241.366913 478.351440,227.843124 473.414917,215.328186 
	C466.433228,197.628326 458.982727,180.223831 447.699371,164.381927 
	C438.495941,151.460175 427.198486,141.121368 415.981293,130.364777 
	C402.380066,117.322075 386.389557,107.956337 369.609528,100.033485 
	C357.951782,94.529152 345.659027,90.247047 333.392303,86.199867 
	C325.747528,83.677620 317.622803,82.610077 309.713501,80.889694 
	C309.526581,81.505760 309.339661,82.121834 309.152740,82.737900 
	C311.003326,83.482155 312.827393,84.302704 314.709167,84.957306 
	C322.374390,87.623764 330.085358,90.163185 337.700195,92.964813 
	C338.715240,93.338264 339.276276,94.945869 339.291016,95.987221 
	C320.825043,86.863976 301.023468,82.983894 280.399963,80.469772 
	C278.329987,80.223053 276.259979,79.976326 273.346802,79.421432 
	C271.857483,79.380257 270.368195,79.339081 268.249603,78.810806 
	C260.201599,78.956009 252.153580,79.101204 243.190445,79.114319 
	C241.367630,79.321922 239.544815,79.529526 237.036758,79.466499 
	C235.410263,79.988968 233.783752,80.511436 231.275375,80.966209 
	C217.229492,82.251228 203.609085,85.134247 190.151825,89.629593 
	C173.447891,95.209473 157.625687,102.273788 142.384583,112.275269 
	C131.905045,121.129242 121.425499,129.983215 110.454147,139.059189 
	C110.278053,139.361969 110.101952,139.664749 109.993134,139.991318 
	C109.993134,139.991318 109.964127,139.926117 109.472473,140.104675 
z"/>
<path fill="#F7F7F7" opacity="1.000000" stroke="none" 
	d="
M340.047577,95.981926 
	C339.276276,94.945869 338.715240,93.338264 337.700195,92.964813 
	C330.085358,90.163185 322.374390,87.623764 314.709167,84.957306 
	C312.827393,84.302704 311.003326,83.482155 309.152740,82.737900 
	C309.339661,82.121834 309.526581,81.505760 309.713501,80.889694 
	C317.622803,82.610077 325.747528,83.677620 333.392303,86.199867 
	C345.659027,90.247047 357.951782,94.529152 369.609528,100.033485 
	C386.389557,107.956337 402.380066,117.322075 415.981293,130.364777 
	C427.198486,141.121368 438.495941,151.460175 447.699371,164.381927 
	C458.982727,180.223831 466.433228,197.628326 473.414917,215.328186 
	C478.351440,227.843124 479.595123,241.366913 479.994873,254.838379 
	C480.458618,270.466705 480.174377,286.125610 476.246002,301.306641 
	C471.305786,320.397827 462.961456,338.180298 452.425964,354.807465 
	C442.470276,370.519531 438.763123,387.333282 441.983368,405.568359 
	C443.677856,415.163452 445.733459,424.713776 448.098053,434.166199 
	C450.403809,443.383270 448.188354,451.440247 443.466949,459.310150 
	C439.867798,465.309448 434.315308,468.269318 427.909119,468.808350 
	C419.889679,469.483154 411.684418,469.674866 403.714172,468.746307 
	C394.893738,467.718689 386.011383,465.907745 377.587219,463.130219 
	C367.299530,459.738220 356.386841,457.173492 348.257355,449.116577 
	C339.301300,440.240448 328.507294,440.843109 317.528625,443.356171 
	C299.273254,447.534882 280.749084,448.863983 262.173004,447.807953 
	C250.841034,447.163727 239.421234,445.489227 228.385574,442.841125 
	C213.606659,439.294830 198.853912,435.163055 184.676605,429.746918 
	C174.540085,425.874542 165.151215,419.831207 155.827637,414.106903 
	C147.093414,408.744446 138.569962,402.922180 130.554382,396.547058 
	C125.280258,392.352264 121.273010,386.606415 116.350624,381.920532 
	C92.882919,359.580597 80.195580,331.165375 70.604782,301.025909 
	C69.380524,297.178619 69.267204,292.977753 68.482048,287.930267 
	C70.499496,288.952850 71.436264,289.427673 72.880692,290.252167 
	C73.663155,291.698700 73.937950,292.795532 73.952965,294.057465 
	C74.149704,294.815186 74.606224,295.407837 75.231087,296.272522 
	C75.649231,297.339355 75.899017,298.134094 75.898972,299.091431 
	C76.097885,299.832794 76.546631,300.411499 77.165466,301.264374 
	C77.612000,302.331604 77.888458,303.124664 77.877518,304.120819 
	C78.413345,305.881195 79.236580,307.438538 80.248199,309.287811 
	C83.961418,315.363586 87.486259,321.147400 91.109406,327.264587 
	C95.282982,333.098389 99.358246,338.598785 103.432198,344.273560 
	C103.570862,344.675720 103.772514,344.765442 104.047195,344.802979 
	C104.058578,344.888916 104.227646,344.927185 104.206146,345.173676 
	C104.184639,345.420166 104.269737,345.907684 103.908051,345.971558 
	C103.241058,347.094055 102.356186,348.461884 102.728180,349.159210 
	C104.594940,352.658630 106.319771,356.414429 108.956886,359.289001 
	C117.576485,368.684601 126.801163,377.528137 135.351120,386.983673 
	C142.832077,395.256927 152.351761,400.741608 161.521240,406.494995 
	C170.302139,412.004547 180.342987,415.459900 189.551193,420.343933 
	C209.760223,431.062836 231.742554,435.159271 254.069321,436.786804 
	C279.621063,438.649414 305.106293,436.325378 330.345490,431.749023 
	C338.965851,430.185974 346.801971,431.403412 352.973694,438.414734 
	C354.496002,440.144135 356.365784,441.581665 358.149811,443.064331 
	C366.366791,449.893066 376.467438,452.264008 386.474243,454.610809 
	C398.039062,457.323029 409.605347,460.452179 421.731720,458.026184 
	C430.905975,456.190735 438.330109,449.503357 437.812408,441.657318 
	C437.306335,433.987915 435.272644,426.419739 433.915710,418.806000 
	C432.299072,409.735229 429.406128,400.670380 429.355865,391.590271 
	C429.264618,375.103973 437.612274,360.881897 446.027649,347.574310 
	C459.898224,325.640106 466.663483,301.566620 469.697235,276.436462 
	C471.600708,260.668884 469.718994,244.746750 466.182465,228.997330 
	C461.641785,208.776123 454.035309,189.924561 442.215363,173.135880 
	C432.208527,158.922531 420.724884,145.695251 407.028107,134.723770 
	C402.946350,131.454178 398.345581,128.832520 393.982605,125.914001 
	C393.871613,126.188408 393.760620,126.462814 393.649628,126.737221 
	C395.083893,129.553055 396.518188,132.368896 397.651184,135.023178 
	C395.458160,133.248047 393.633942,131.546173 391.662537,130.036560 
	C384.180908,124.307442 376.651581,118.640533 368.945068,112.663635 
	C360.979279,107.966324 353.205780,103.560562 345.439819,99.141586 
	C343.629303,98.111389 341.844299,97.036339 340.047577,95.981926 
M387.182587,122.631241 
	C386.613556,121.453369 386.044556,120.275497 385.475555,119.097633 
	C384.576935,119.874763 383.678314,120.651894 382.779724,121.429024 
	C384.036072,121.837128 385.292419,122.245224 387.182587,122.631241 
z"/>
<path fill="#4AD89F" opacity="1.000000" stroke="none" 
	d="
M369.140106,112.950363 
	C376.651581,118.640533 384.180908,124.307442 391.662537,130.036560 
	C393.633942,131.546173 395.458160,133.248047 397.791473,135.313141 
	C400.160461,137.837585 402.087921,139.910507 404.088379,142.182159 
	C404.306763,142.638580 404.518677,142.817413 404.926544,143.180817 
	C405.383484,143.923233 405.711029,144.402206 405.758148,145.198914 
	C403.676697,145.677780 401.875702,145.979431 400.074677,145.979858 
	C305.374695,146.002670 210.674713,146.000366 115.974724,145.996719 
	C114.477867,145.996658 112.706322,146.440018 111.553368,145.797058 
	C110.098282,144.985611 109.147720,143.269440 107.979507,141.943573 
	C108.065117,141.616104 108.247261,141.356339 108.979736,140.966705 
	C109.610413,140.488159 109.787270,140.207138 109.964127,139.926117 
	C109.964127,139.926117 109.993134,139.991318 110.204117,139.868057 
	C110.592056,139.442276 110.769012,139.139740 110.945969,138.837204 
	C121.425499,129.983215 131.905045,121.129242 143.027222,112.474571 
	C144.652283,112.782646 145.634674,112.986649 146.617081,112.986626 
	C220.791428,112.984848 294.965759,112.966972 369.140106,112.950363 
z"/>
<path fill="#4DD89D" opacity="1.000000" stroke="none" 
	d="
M107.656624,142.062561 
	C109.147720,143.269440 110.098282,144.985611 111.553368,145.797058 
	C112.706322,146.440018 114.477867,145.996658 115.974724,145.996719 
	C210.674713,146.000366 305.374695,146.002670 400.074677,145.979858 
	C401.875702,145.979431 403.676697,145.677780 406.057098,145.357697 
	C408.492126,147.459244 410.347748,149.719788 412.286194,152.301117 
	C415.951172,157.998322 419.533264,163.374756 423.192047,169.099762 
	C424.133759,173.397797 420.991211,172.947678 418.986237,172.933746 
	C384.887573,172.696808 350.789825,172.334366 316.691376,172.060013 
	C315.465790,172.050171 314.235260,172.658951 312.697205,172.836502 
	C307.000793,169.828934 301.788544,166.554199 296.195282,164.175415 
	C278.375458,156.596680 259.614075,155.014084 240.761856,158.104889 
	C229.978012,159.872894 219.573898,163.957001 208.819550,166.668762 
	C207.620621,165.918747 206.592575,165.115234 205.582657,165.137375 
	C196.145462,165.344391 186.709091,166.009949 177.276840,165.941483 
	C148.383591,165.731705 119.492256,165.255875 90.600182,164.883514 
	C96.178040,157.316208 101.755890,149.748871 107.656624,142.062561 
z"/>
<path fill="#53D79B" opacity="1.000000" stroke="none" 
	d="
M90.327438,165.061386 
	C119.492256,165.255875 148.383591,165.731705 177.276840,165.941483 
	C186.709091,166.009949 196.145462,165.344391 205.582657,165.137375 
	C206.592575,165.115234 207.620621,165.918747 208.618698,166.944550 
	C205.126434,170.093277 201.655731,172.636673 198.168945,175.169281 
	C198.152847,175.158493 198.146240,175.121262 197.769836,175.087845 
	C196.637207,175.764771 195.880981,176.475098 195.076782,177.146240 
	C195.028778,177.107040 195.151138,177.126801 194.757477,177.093414 
	C193.621002,177.849838 192.878189,178.639633 192.045258,179.603668 
	C191.766541,179.982315 191.533203,180.086960 190.871613,180.067734 
	C185.365829,185.140915 180.243546,190.238159 175.107147,195.679901 
	C170.710480,204.011780 166.327942,211.999161 161.587006,220.059540 
	C159.392471,225.983582 154.967850,226.459427 149.742462,226.077606 
	C144.771133,225.714355 139.751587,226.059830 134.754715,225.988968 
	C112.643349,225.675385 90.532524,225.324066 68.421509,224.986389 
	C68.544930,223.876465 68.668358,222.766525 69.192291,221.296417 
	C69.697830,220.276657 69.802856,219.617065 69.907883,218.957474 
	C70.705505,214.114014 71.019341,209.128540 72.391724,204.453812 
	C76.460625,190.594009 82.007355,177.337173 90.327438,165.061386 
z"/>
<path fill="#66D493" opacity="1.000000" stroke="none" 
	d="
M78.164917,303.917755 
	C77.888458,303.124664 77.612000,302.331604 77.177551,300.972626 
	C76.729317,299.914093 76.439064,299.421478 76.148804,298.928833 
	C75.899017,298.134094 75.649231,297.339355 75.249557,295.971252 
	C74.804039,294.896027 74.508392,294.394196 74.212746,293.892365 
	C73.937950,292.795532 73.663155,291.698700 73.224167,290.298645 
	C72.947067,288.969177 72.834175,287.942932 73.027550,286.314453 
	C72.515785,280.892578 72.159103,275.932739 70.749451,271.292847 
	C69.350754,266.689026 70.809738,265.912476 75.034103,265.934906 
	C100.272057,266.069000 125.511635,266.085205 150.749191,265.918213 
	C154.932800,265.890533 158.543060,266.218384 161.160141,270.327332 
	C165.684799,278.349487 170.059341,286.043976 174.424301,293.743896 
	C175.554199,295.737030 177.081375,297.624451 177.697556,299.769684 
	C181.347153,312.476379 179.876266,324.706909 173.574203,336.303986 
	C172.765076,337.792938 171.261536,338.904510 170.086258,339.816467 
	C172.172104,334.312531 174.251389,329.183075 176.757751,323.000000 
	C172.940720,323.000000 170.355789,323.000000 167.770844,323.000000 
	C144.371185,323.000031 120.971474,322.977661 97.571922,323.029205 
	C94.731262,323.035461 91.200478,322.287079 91.011101,326.931213 
	C87.486259,321.147400 83.961418,315.363586 80.273621,308.936340 
	C79.462090,306.834503 78.813499,305.376129 78.164917,303.917755 
z"/>
<path fill="#45D9A1" opacity="1.000000" stroke="none" 
	d="
M368.945068,112.663635 
	C294.965759,112.966972 220.791428,112.984848 146.617081,112.986626 
	C145.634674,112.986649 144.652283,112.782646 143.361237,112.406166 
	C157.625687,102.273788 173.447891,95.209473 190.151825,89.629593 
	C203.609085,85.134247 217.229492,82.251228 232.056717,81.007942 
	C234.466034,80.612160 236.094025,80.174644 237.722000,79.737122 
	C239.544815,79.529526 241.367630,79.321922 243.966553,79.424049 
	C252.788071,79.588486 260.833466,79.443199 268.878876,79.297913 
	C270.368195,79.339081 271.857483,79.380257 274.001129,79.791473 
	C276.677521,80.463600 278.699554,80.765694 280.721619,81.067780 
	C301.023468,82.983894 320.825043,86.863976 339.669312,95.984573 
	C341.844299,97.036339 343.629303,98.111389 345.439819,99.141586 
	C353.205780,103.560562 360.979279,107.966324 368.945068,112.663635 
z"/>
<path fill="#5BD597" opacity="1.000000" stroke="none" 
	d="
M161.006470,270.001678 
	C158.543060,266.218384 154.932800,265.890533 150.749191,265.918213 
	C125.511635,266.085205 100.272057,266.069000 75.034103,265.934906 
	C70.809738,265.912476 69.350754,266.689026 70.749451,271.292847 
	C72.159103,275.932739 72.515785,280.892578 73.034363,285.925171 
	C71.115150,279.228424 69.106743,272.382568 67.959251,265.395325 
	C65.792328,252.200607 65.742874,238.929153 68.204865,225.342499 
	C90.532524,225.324066 112.643349,225.675385 134.754715,225.988968 
	C139.751587,226.059830 144.771133,225.714355 149.742462,226.077606 
	C154.967850,226.459427 159.392471,225.983582 161.575745,220.451782 
	C160.652634,224.862427 158.541656,228.903946 158.295151,233.056152 
	C157.845261,240.635193 158.269104,248.295212 158.777618,255.891388 
	C159.094406,260.623322 160.235397,265.300140 161.006470,270.001678 
z"/>
<path fill="#66D493" opacity="1.000000" stroke="none" 
	d="
M268.564240,79.054359 
	C260.833466,79.443199 252.788071,79.588486 244.424118,79.490089 
	C252.153580,79.101204 260.201599,78.956009 268.564240,79.054359 
z"/>
<path fill="#66D493" opacity="1.000000" stroke="none" 
	d="
M280.560791,80.768776 
	C278.699554,80.765694 276.677521,80.463600 274.422729,79.945557 
	C276.259979,79.976326 278.329987,80.223053 280.560791,80.768776 
z"/>
<path fill="#66D493" opacity="1.000000" stroke="none" 
	d="
M237.379379,79.601807 
	C236.094025,80.174644 234.466034,80.612160 232.497650,81.041794 
	C233.783752,80.511436 235.410263,79.988968 237.379379,79.601807 
z"/>
<path fill="#5BD597" opacity="1.000000" stroke="none" 
	d="
M69.668564,219.007874 
	C69.802856,219.617065 69.697830,220.276657 69.294296,220.970703 
	C69.140274,220.356186 69.284752,219.707230 69.668564,219.007874 
z"/>
<path fill="#4DD89D" opacity="1.000000" stroke="none" 
	d="
M110.700058,138.948196 
	C110.769012,139.139740 110.592056,139.442276 110.170471,139.856171 
	C110.101952,139.664749 110.278053,139.361969 110.700058,138.948196 
z"/>
<path fill="#4DD89D" opacity="1.000000" stroke="none" 
	d="
M109.718307,140.015396 
	C109.787270,140.207138 109.610413,140.488159 109.205872,140.880447 
	C109.142960,140.696030 109.307716,140.400360 109.718307,140.015396 
z"/>
<path fill="#F1F1F1" opacity="1.000000" stroke="none" 
	d="
M412.203369,151.980316 
	C410.347748,149.719788 408.492126,147.459244 406.337555,145.039948 
	C405.711029,144.402206 405.383484,143.923233 405.019470,143.204254 
	C404.983002,142.964249 405.154633,143.049240 405.402679,143.007935 
	C405.838684,142.797318 406.026672,142.628036 406.214630,142.458755 
	C405.742462,142.329056 405.270294,142.199341 404.602417,142.048309 
	C404.406677,142.026993 404.015381,141.983429 404.015381,141.983429 
	C402.087921,139.910507 400.160461,137.837585 398.092712,135.474701 
	C396.518188,132.368896 395.083893,129.553055 393.649628,126.737221 
	C393.760620,126.462814 393.871613,126.188408 393.982605,125.914001 
	C398.345581,128.832520 402.946350,131.454178 407.028107,134.723770 
	C420.724884,145.695251 432.208527,158.922531 442.215363,173.135880 
	C454.035309,189.924561 461.641785,208.776123 466.182465,228.997330 
	C469.718994,244.746750 471.600708,260.668884 469.697235,276.436462 
	C466.663483,301.566620 459.898224,325.640106 446.027649,347.574310 
	C437.612274,360.881897 429.264618,375.103973 429.355865,391.590271 
	C429.406128,400.670380 432.299072,409.735229 433.915710,418.806000 
	C435.272644,426.419739 437.306335,433.987915 437.812408,441.657318 
	C438.330109,449.503357 430.905975,456.190735 421.731720,458.026184 
	C409.605347,460.452179 398.039062,457.323029 386.474243,454.610809 
	C376.467438,452.264008 366.366791,449.893066 358.149811,443.064331 
	C356.365784,441.581665 354.496002,440.144135 352.973694,438.414734 
	C346.801971,431.403412 338.965851,430.185974 330.345490,431.749023 
	C305.106293,436.325378 279.621063,438.649414 254.069321,436.786804 
	C231.742554,435.159271 209.760223,431.062836 189.551193,420.343933 
	C180.342987,415.459900 170.302139,412.004547 161.521240,406.494995 
	C152.351761,400.741608 142.832077,395.256927 135.351120,386.983673 
	C126.801163,377.528137 117.576485,368.684601 108.956886,359.289001 
	C106.319771,356.414429 104.594940,352.658630 102.728180,349.159210 
	C102.356186,348.461884 103.241058,347.094055 104.102707,346.060608 
	C104.897102,346.274658 105.032707,346.520111 105.067734,347.151611 
	C105.452034,347.949951 105.834457,348.418793 106.157227,348.887115 
	C106.097572,348.886566 106.142960,348.776215 106.210007,349.127533 
	C108.299385,351.280548 110.321716,353.082275 112.614487,355.057983 
	C121.246742,362.239929 129.608566,369.247864 137.972229,376.616028 
	C138.837585,378.673157 139.304733,380.830261 140.639572,381.979889 
	C144.507629,385.311188 148.618423,388.391388 152.826691,391.290314 
	C160.842651,396.812103 168.604462,402.875427 177.169235,407.391144 
	C193.787445,416.153015 211.659348,421.971802 229.997803,425.827698 
	C240.926697,428.125641 252.191452,429.550018 263.347229,429.861053 
	C277.147400,430.245789 291.041443,429.621399 304.797882,428.368073 
	C313.605469,427.565613 322.272369,424.977966 330.911407,422.825500 
	C332.213226,422.501129 333.017975,420.181702 334.393555,418.943726 
	C340.665192,421.131012 346.622894,423.086212 352.507324,425.241547 
	C353.924316,425.760529 355.098389,426.942719 356.044647,427.885254 
	C355.596405,428.920380 355.044098,430.465515 355.444885,430.774536 
	C362.503906,436.217072 368.977051,443.318970 376.987213,446.426147 
	C390.365417,451.615631 404.614655,454.967651 419.430481,452.056610 
	C424.902802,450.981354 429.382050,447.766235 429.812988,442.234100 
	C430.266693,436.409912 430.636230,430.197510 429.127075,424.678528 
	C425.572449,411.679047 423.717102,398.495392 425.273834,385.287476 
	C426.359741,376.074036 429.072113,366.755890 432.766174,358.224152 
	C437.009491,348.423798 443.521545,339.634247 448.375275,330.064362 
	C463.029724,301.170776 466.736359,270.625336 462.118652,238.679245 
	C458.890137,216.343475 449.923187,196.381424 438.117310,177.638123 
	C432.866669,169.301987 425.925903,161.983444 419.334320,154.574890 
	C417.854584,152.911728 414.626556,152.804062 412.203369,151.980316 
z"/>
<path fill="#6BD390" opacity="1.000000" stroke="none" 
	d="
M91.109406,327.264587 
	C91.200478,322.287079 94.731262,323.035461 97.571922,323.029205 
	C120.971474,322.977661 144.371185,323.000031 167.770844,323.000000 
	C170.355789,323.000000 172.940720,323.000000 176.757751,323.000000 
	C174.251389,329.183075 172.172104,334.312531 170.076263,340.152710 
	C171.076004,342.151001 172.092331,343.438568 173.037872,345.138184 
	C171.050842,346.366852 169.141525,347.873352 167.217300,347.892639 
	C149.172791,348.073578 131.125626,347.970978 113.079620,348.047363 
	C111.377007,348.054535 109.677200,348.724335 107.669769,349.013977 
	C106.956627,348.886322 106.549789,348.831268 106.142960,348.776215 
	C106.142960,348.776215 106.097572,348.886566 106.195801,348.568054 
	C106.195930,347.832275 106.097847,347.415039 105.966782,346.692993 
	C105.365082,345.901215 104.796364,345.414215 104.227646,344.927185 
	C104.227646,344.927185 104.058578,344.888916 103.960510,344.687073 
	C103.744637,344.328583 103.601662,344.199921 103.433517,344.099213 
	C99.358246,338.598785 95.282982,333.098389 91.109406,327.264587 
z"/>
<path fill="#F1F1F1" opacity="1.000000" stroke="none" 
	d="
M386.865662,122.642288 
	C385.292419,122.245224 384.036072,121.837128 382.779724,121.429024 
	C383.678314,120.651894 384.576935,119.874763 385.475555,119.097633 
	C386.044556,120.275497 386.613556,121.453369 386.865662,122.642288 
z"/>
<path fill="#FFFFFF" opacity="1.000000" stroke="none" 
	d="
M77.877518,304.120819 
	C78.813499,305.376129 79.462090,306.834503 80.085243,308.644348 
	C79.236580,307.438538 78.413345,305.881195 77.877518,304.120819 
z"/>
<path fill="#FFFFFF" opacity="1.000000" stroke="none" 
	d="
M73.952965,294.057465 
	C74.508392,294.394196 74.804039,294.896027 75.081207,295.699158 
	C74.606224,295.407837 74.149704,294.815186 73.952965,294.057465 
z"/>
<path fill="#FFFFFF" opacity="1.000000" stroke="none" 
	d="
M75.898972,299.091431 
	C76.439064,299.421478 76.729317,299.914093 77.007477,300.698486 
	C76.546631,300.411499 76.097885,299.832794 75.898972,299.091431 
z"/>
<path fill="#6FD28E" opacity="1.000000" stroke="none" 
	d="
M104.206139,345.173676 
	C104.796364,345.414215 105.365082,345.901215 105.729721,346.668213 
	C105.525635,346.948181 105.065865,346.822144 105.065865,346.822144 
	C105.032707,346.520111 104.897102,346.274658 104.464394,345.996765 
	C104.269737,345.907684 104.184639,345.420166 104.206139,345.173676 
z"/>
<path fill="#6FD28E" opacity="1.000000" stroke="none" 
	d="
M103.432198,344.273560 
	C103.601662,344.199921 103.744637,344.328583 103.949127,344.601135 
	C103.772514,344.765442 103.570862,344.675720 103.432198,344.273560 
z"/>
<path fill="#4DD89D" opacity="1.000000" stroke="none" 
	d="
M404.088379,142.182159 
	C404.015381,141.983429 404.406677,142.026993 404.686768,142.294952 
	C405.029480,142.725037 405.092041,142.887146 405.154633,143.049240 
	C405.154633,143.049240 404.983002,142.964249 404.890076,142.940811 
	C404.518677,142.817413 404.306763,142.638580 404.088379,142.182159 
z"/>
<path fill="#53D79B" opacity="1.000000" stroke="none" 
	d="
M313.007019,172.979416 
	C314.235260,172.658951 315.465790,172.050171 316.691376,172.060013 
	C350.789825,172.334366 384.887573,172.696808 418.986237,172.933746 
	C420.991211,172.947678 424.133759,173.397797 423.518738,169.220505 
	C424.761902,170.481644 426.036255,171.855209 426.702301,173.478378 
	C430.876312,183.650345 434.914764,193.877945 439.050598,204.241150 
	C439.195160,204.596497 439.331726,204.760849 439.648010,205.230606 
	C439.885925,206.297531 439.988586,207.022034 440.101257,207.962433 
	C440.174011,208.469177 440.322784,208.705933 440.694397,209.240570 
	C440.929016,210.337601 441.026733,211.082626 440.832581,212.153259 
	C438.748077,212.652771 436.955658,212.976212 435.162842,212.978271 
	C406.447601,213.011139 377.732330,213.002975 348.871582,212.685455 
	C346.784485,209.597580 344.842865,206.828400 342.919769,204.055115 
	C342.938263,204.051010 342.907745,204.087143 342.928650,203.709106 
	C342.270752,201.685074 341.848755,199.865509 340.872162,198.420807 
	C333.634827,187.714294 324.298553,179.266037 313.007019,172.979416 
z"/>
<path fill="#E9E9E9" opacity="1.000000" stroke="none" 
	d="
M438.998047,204.087143 
	C434.914764,193.877945 430.876312,183.650345 426.702301,173.478378 
	C426.036255,171.855209 424.761902,170.481644 423.442078,168.871948 
	C419.533264,163.374756 415.951172,157.998322 412.286224,152.301102 
	C414.626556,152.804062 417.854584,152.911728 419.334320,154.574890 
	C425.925903,161.983444 432.866669,169.301987 438.117310,177.638123 
	C449.923187,196.381424 458.890137,216.343475 462.118652,238.679245 
	C466.736359,270.625336 463.029724,301.170776 448.375275,330.064362 
	C443.521545,339.634247 437.009491,348.423798 432.766174,358.224152 
	C429.072113,366.755890 426.359741,376.074036 425.273834,385.287476 
	C423.717102,398.495392 425.572449,411.679047 429.127075,424.678528 
	C430.636230,430.197510 430.266693,436.409912 429.812988,442.234100 
	C429.382050,447.766235 424.902802,450.981354 419.430481,452.056610 
	C404.614655,454.967651 390.365417,451.615631 376.987213,446.426147 
	C368.977051,443.318970 362.503906,436.217072 355.444885,430.774536 
	C355.044098,430.465515 355.596405,428.920380 356.405029,427.875854 
	C364.067291,429.538879 371.029663,431.276672 378.033508,433.366730 
	C378.283905,434.162689 378.370056,434.802887 378.719727,435.021454 
	C388.245270,440.975616 398.653320,443.716125 409.833008,442.782471 
	C413.414886,442.483398 416.657593,440.783325 416.390137,435.991150 
	C417.865692,434.321594 419.977905,432.639038 419.847778,431.152832 
	C419.633820,428.709076 417.966919,426.392517 417.294067,423.948639 
	C417.895905,422.104462 418.709442,420.159515 418.247772,418.589600 
	C411.011780,393.984772 415.713959,370.656952 427.417358,348.905182 
	C433.832489,336.982147 441.662170,325.963867 446.276794,312.942719 
	C450.576782,300.809418 454.016113,288.555756 454.838379,275.841095 
	C455.976440,258.243683 455.192596,240.635818 449.906738,223.583099 
	C448.181976,218.018784 445.917511,212.621735 443.899902,207.148193 
	C443.570404,207.285629 443.240936,207.423065 442.911438,207.560501 
	C442.911438,209.771133 442.911438,211.981781 442.642883,214.042664 
	C441.957733,213.204498 441.541077,212.516083 441.124451,211.827667 
	C441.026733,211.082626 440.929016,210.337601 440.728333,209.019363 
	C440.560394,208.126816 440.382355,207.893616 440.091278,207.746552 
	C439.988586,207.022034 439.885925,206.297531 439.684540,205.038483 
	C439.510773,204.194931 439.314850,204.055984 438.998047,204.087143 
z"/>
<path fill="#4AD89F" opacity="1.000000" stroke="none" 
	d="
M312.697205,172.836502 
	C324.298553,179.266037 333.634827,187.714294 340.872162,198.420807 
	C341.848755,199.865509 342.270752,201.685074 342.664734,203.506500 
	C318.932190,169.580963 285.571808,157.003128 245.516205,159.458282 
	C228.440765,160.504868 212.875351,166.663818 198.185028,175.180054 
	C201.655731,172.636673 205.126434,170.093277 208.797974,167.274109 
	C219.573898,163.957001 229.978012,159.872894 240.761856,158.104889 
	C259.614075,155.014084 278.375458,156.596680 296.195282,164.175415 
	C301.788544,166.554199 307.000793,169.828934 312.697205,172.836502 
z"/>
<path fill="#FEFFFF" opacity="1.000000" stroke="none" 
	d="
M198.168945,175.169281 
	C212.875351,166.663818 228.440765,160.504868 245.516205,159.458282 
	C285.571808,157.003128 318.932190,169.580963 342.643799,203.884537 
	C342.907745,204.087143 342.938263,204.051010 342.997101,204.404129 
	C345.031097,208.506317 347.006226,212.255386 349.014526,216.381912 
	C350.851074,224.164032 352.654419,231.568695 354.372467,239.373383 
	C353.154327,249.834427 352.021454,259.895477 350.656616,270.210938 
	C345.195435,285.715210 335.777771,298.058197 323.588165,308.852753 
	C282.721741,339.036469 240.577209,339.227295 197.169937,315.662048 
	C196.853485,316.042480 196.537048,316.422913 196.220612,316.803345 
	C203.074081,322.410645 209.927567,328.017944 217.810806,334.467773 
	C208.606049,337.157898 200.477280,339.694275 192.254669,341.877045 
	C187.244766,343.206940 182.090225,343.992065 176.613480,344.965637 
	C175.187103,344.848328 174.147888,344.787231 173.108673,344.726135 
	C172.092331,343.438568 171.076004,342.151001 170.069672,340.527161 
	C171.261536,338.904510 172.765076,337.792938 173.574203,336.303986 
	C179.876266,324.706909 181.347153,312.476379 177.697556,299.769684 
	C177.081375,297.624451 175.554199,295.737030 174.424301,293.743896 
	C170.059341,286.043976 165.684799,278.349487 161.160141,270.327332 
	C160.235397,265.300140 159.094406,260.623322 158.777618,255.891388 
	C158.269104,248.295212 157.845261,240.635193 158.295151,233.056152 
	C158.541656,228.903946 160.652634,224.862427 161.934143,220.378754 
	C166.327942,211.999161 170.710480,204.011780 175.429596,195.556946 
	C180.929138,190.090256 186.092117,185.091034 191.255096,180.091797 
	C191.533203,180.086960 191.766541,179.982315 192.346924,179.484421 
	C193.542862,178.502899 194.346985,177.814850 195.151123,177.126801 
	C195.151138,177.126801 195.028778,177.107040 195.382355,177.076569 
	C196.539368,176.404495 197.342804,175.762878 198.146240,175.121246 
	C198.146240,175.121262 198.152847,175.158493 198.168945,175.169281 
z"/>
<path fill="#4DD89D" opacity="1.000000" stroke="none" 
	d="
M190.871613,180.067719 
	C186.092117,185.091034 180.929138,190.090256 175.443710,195.212433 
	C180.243546,190.238159 185.365829,185.140915 190.871613,180.067719 
z"/>
<path fill="#4AD89F" opacity="1.000000" stroke="none" 
	d="
M197.769836,175.087830 
	C197.342804,175.762878 196.539368,176.404495 195.430359,177.115784 
	C195.880981,176.475098 196.637207,175.764771 197.769836,175.087830 
z"/>
<path fill="#4AD89F" opacity="1.000000" stroke="none" 
	d="
M194.757477,177.093414 
	C194.346985,177.814850 193.542862,178.502899 192.437042,179.310211 
	C192.878189,178.639633 193.621002,177.849838 194.757477,177.093414 
z"/>
<path fill="#6FD28E" opacity="1.000000" stroke="none" 
	d="
M173.037872,345.138184 
	C174.147888,344.787231 175.187103,344.848328 176.667862,345.356903 
	C179.265198,346.536255 181.420059,347.904755 183.576920,347.907898 
	C258.037994,348.017151 332.499298,347.997406 406.984863,348.426392 
	C406.879761,350.275940 406.750336,351.695251 406.449097,353.303162 
	C406.188080,353.994263 406.098785,354.496735 405.994934,355.355865 
	C405.870697,356.175018 405.761047,356.637482 405.478027,357.275146 
	C405.190521,357.929321 405.076385,358.408295 404.912170,359.188904 
	C404.820526,359.690155 404.779022,359.889740 404.507172,360.379669 
	C404.199890,362.474396 404.122925,364.278778 404.063080,366.503174 
	C403.960938,368.316345 403.841644,369.709503 403.506256,371.353485 
	C403.177521,372.732300 403.064941,373.860291 402.590759,375.057831 
	C399.766266,376.084930 397.350861,377.682587 394.830750,377.869598 
	C389.207184,378.286896 383.523438,377.830017 377.881073,378.091980 
	C375.894226,378.184204 373.956482,379.334198 371.670044,379.999084 
	C370.908966,379.994720 370.474152,379.992554 369.763794,379.927124 
	C369.306641,379.813568 369.125000,379.763214 368.832397,379.595978 
	C368.367249,379.382599 368.130554,379.525604 367.832031,379.993042 
	C367.652802,380.077972 367.259186,380.127533 366.884033,379.965881 
	C363.107697,379.202789 359.707275,378.082001 356.305145,378.076752 
	C289.341278,377.973633 222.377167,377.967651 155.413376,378.090424 
	C151.867737,378.096924 148.324509,379.415375 144.590637,380.151184 
	C144.401123,380.179291 144.027130,380.095856 143.985947,379.733948 
	C142.204285,378.282471 140.463791,377.192871 138.534424,376.138184 
	C138.345535,376.173065 137.970383,376.255829 137.970383,376.255829 
	C129.608566,369.247864 121.246742,362.239929 112.485107,354.746460 
	C110.715561,352.536163 109.345818,350.811340 107.976089,349.086517 
	C109.677200,348.724335 111.377007,348.054535 113.079620,348.047363 
	C131.125626,347.970978 149.172791,348.073578 167.217300,347.892639 
	C169.141525,347.873352 171.050842,346.366852 173.037872,345.138184 
z"/>
<path fill="#7CD18D" opacity="1.000000" stroke="none" 
	d="
M416.912537,424.022339 
	C417.966919,426.392517 419.633820,428.709076 419.847778,431.152832 
	C419.977905,432.639038 417.865692,434.321594 415.923279,435.958923 
	C402.721252,435.006104 390.356628,434.010284 377.992035,433.014465 
	C371.029663,431.276672 364.067291,429.538879 356.744568,427.810516 
	C355.098389,426.942719 353.924316,425.760529 352.507324,425.241547 
	C346.622894,423.086212 340.665192,421.131012 334.188354,418.699158 
	C332.460022,417.220673 331.277771,416.145386 330.075684,415.050659 
	C330.055878,415.031250 330.040009,415.077209 330.324158,414.965210 
	C331.144867,414.255341 331.681396,413.657471 332.564270,413.039246 
	C337.596405,409.990845 342.282227,406.962769 347.142334,404.269379 
	C349.576447,405.402710 351.827148,406.861755 354.097595,406.893066 
	C369.081451,407.100006 384.070038,407.058899 399.055756,406.937592 
	C401.364960,406.918945 403.667450,406.071777 406.225403,405.557037 
	C405.466919,403.107880 404.677307,401.560181 404.552002,399.960388 
	C404.214386,395.651154 404.160126,391.319702 404.245911,387.294098 
	C406.201019,400.564758 409.595703,412.961792 416.912537,424.022339 
z"/>
<path fill="#E9E9E9" opacity="1.000000" stroke="none" 
	d="
M330.095490,415.070068 
	C331.277771,416.145386 332.460022,417.220673 333.847473,418.540558 
	C333.017975,420.181702 332.213226,422.501129 330.911407,422.825500 
	C322.272369,424.977966 313.605469,427.565613 304.797882,428.368073 
	C291.041443,429.621399 277.147400,430.245789 263.347229,429.861053 
	C252.191452,429.550018 240.926697,428.125641 229.997803,425.827698 
	C211.659348,421.971802 193.787445,416.153015 177.169235,407.391144 
	C168.604462,402.875427 160.842651,396.812103 152.826691,391.290314 
	C148.618423,388.391388 144.507629,385.311188 140.639572,381.979889 
	C139.304733,380.830261 138.837585,378.673157 137.972229,376.616028 
	C137.970383,376.255829 138.345535,376.173065 138.626282,376.459869 
	C140.613724,377.863068 142.320419,378.979462 144.027130,380.095856 
	C144.027130,380.095856 144.401123,380.179291 144.682983,380.494446 
	C156.906296,386.819244 168.732239,393.076294 180.839523,398.730988 
	C186.613419,401.427704 192.921982,402.979645 199.029449,405.396423 
	C202.269791,411.929382 208.808014,412.651245 214.315216,413.828400 
	C228.340775,416.826324 242.515656,419.784973 256.773438,420.850861 
	C270.879730,421.905396 285.204132,421.213562 299.350494,420.170532 
	C309.668091,419.409821 319.851990,416.835754 330.095490,415.070068 
z"/>
<path fill="#F7F7F7" opacity="1.000000" stroke="none" 
	d="
M107.669769,349.013977 
	C109.345818,350.811340 110.715561,352.536163 112.214676,354.572449 
	C110.321716,353.082275 108.299385,351.280548 106.210007,349.127533 
	C106.549789,348.831268 106.956627,348.886322 107.669769,349.013977 
z"/>
<path fill="#F7F7F7" opacity="1.000000" stroke="none" 
	d="
M105.067734,347.151611 
	C105.065865,346.822144 105.525635,346.948181 105.762695,346.972992 
	C106.097847,347.415039 106.195930,347.832275 106.255447,348.568604 
	C105.834457,348.418793 105.452034,347.949951 105.067734,347.151611 
z"/>
<path fill="#F7F7F7" opacity="1.000000" stroke="none" 
	d="
M405.402679,143.007935 
	C405.092041,142.887146 405.029480,142.725037 404.882507,142.316284 
	C405.270294,142.199341 405.742462,142.329056 406.214630,142.458755 
	C406.026672,142.628036 405.838684,142.797318 405.402679,143.007935 
z"/>
<path fill="#5BD597" opacity="1.000000" stroke="none" 
	d="
M350.888611,269.956512 
	C352.021454,259.895477 353.154327,249.834427 354.706787,239.251877 
	C356.307068,230.501846 354.064331,223.044601 349.980377,215.678467 
	C349.643127,214.574860 349.330109,213.789520 349.017059,213.004166 
	C377.732330,213.002975 406.447601,213.011139 435.162842,212.978271 
	C436.955658,212.976212 438.748077,212.652771 440.832581,212.153259 
	C441.541077,212.516083 441.957733,213.204498 442.547607,214.351654 
	C443.136902,219.227295 443.552917,223.644196 443.829712,228.374359 
	C443.992310,230.125366 444.294128,231.563080 444.708862,233.456543 
	C444.767120,241.607956 444.712402,249.303635 444.329712,257.101135 
	C443.995605,259.135254 443.989502,261.067535 444.010681,263.335693 
	C443.964966,264.113251 443.891968,264.554962 443.461060,265.091949 
	C441.615448,270.664154 440.127716,276.141083 438.814636,280.975098 
	C408.658356,280.975098 379.093933,280.975098 348.596344,280.975098 
	C349.445251,278.363983 350.181366,276.610596 350.558838,274.783173 
	C350.882080,273.218353 350.794495,271.568665 350.888611,269.956512 
z"/>
<path fill="#4AD89F" opacity="1.000000" stroke="none" 
	d="
M348.871582,212.685455 
	C349.330109,213.789520 349.643127,214.574860 349.724548,215.680298 
	C349.322388,216.001755 349.151855,216.003098 348.981354,216.004456 
	C347.006226,212.255386 345.031097,208.506317 342.978607,204.408234 
	C344.842865,206.828400 346.784485,209.597580 348.871582,212.685455 
z"/>
<path fill="#5BD597" opacity="1.000000" stroke="none" 
	d="
M440.101257,207.962433 
	C440.382355,207.893616 440.560394,208.126816 440.591492,208.667358 
	C440.322784,208.705933 440.174011,208.469177 440.101257,207.962433 
z"/>
<path fill="#5BD597" opacity="1.000000" stroke="none" 
	d="
M439.050598,204.241150 
	C439.314850,204.055984 439.510773,204.194931 439.549316,204.696075 
	C439.331726,204.760849 439.195160,204.596497 439.050598,204.241150 
z"/>
<path fill="#DFE0DF" opacity="1.000000" stroke="none" 
	d="
M443.818939,264.996674 
	C443.891968,264.554962 443.964966,264.113251 444.259644,263.049530 
	C444.540100,260.618134 444.598907,258.808716 444.657684,256.999329 
	C444.712402,249.303635 444.767120,241.607956 444.802734,233.086990 
	C444.512054,230.861511 444.240509,229.461304 443.968933,228.061096 
	C443.552917,223.644196 443.136902,219.227295 442.816162,214.501404 
	C442.911438,211.981781 442.911438,209.771133 442.911438,207.560501 
	C443.240936,207.423065 443.570404,207.285629 443.899902,207.148193 
	C445.917511,212.621735 448.181976,218.018784 449.906738,223.583099 
	C455.192596,240.635818 455.976440,258.243683 454.838379,275.841095 
	C454.016113,288.555756 450.576782,300.809418 446.276794,312.942719 
	C441.662170,325.963867 433.832489,336.982147 427.417358,348.905182 
	C415.713959,370.656952 411.011780,393.984772 418.247772,418.589600 
	C418.709442,420.159515 417.895905,422.104462 417.294067,423.948639 
	C409.595703,412.961792 406.201019,400.564758 404.268311,386.864990 
	C403.920074,384.714874 403.801941,383.290863 403.765778,381.429108 
	C403.805969,377.695129 403.764191,374.398895 403.722382,371.102661 
	C403.841644,369.709503 403.960938,368.316345 404.306274,366.207520 
	C404.600739,363.691010 404.669128,361.890137 404.737488,360.089294 
	C404.779022,359.889740 404.820526,359.690155 405.147644,359.056396 
	C405.505981,358.114807 405.578674,357.607361 405.651398,357.099945 
	C405.761047,356.637482 405.870697,356.175018 406.212799,355.191345 
	C406.503784,354.151611 406.562347,353.633087 406.620880,353.114532 
	C406.750336,351.695251 406.879761,350.275940 407.184814,348.128235 
	C408.600708,345.353149 409.812347,343.288452 411.086182,341.262848 
	C417.017883,331.830444 422.966736,322.408813 429.203552,312.796387 
	C431.088562,309.161743 433.179901,305.852570 434.179382,302.241180 
	C437.599426,289.883606 440.636047,277.419891 443.818939,264.996674 
z"/>
<path fill="#DFE0DF" opacity="1.000000" stroke="none" 
	d="
M378.033508,433.366730 
	C390.356628,434.010284 402.721252,435.006104 415.552673,436.034119 
	C416.657593,440.783325 413.414886,442.483398 409.833008,442.782471 
	C398.653320,443.716125 388.245270,440.975616 378.719727,435.021454 
	C378.370056,434.802887 378.283905,434.162689 378.033508,433.366730 
z"/>
<path fill="#6BD390" opacity="1.000000" stroke="none" 
	d="
M428.909454,312.983307 
	C422.966736,322.408813 417.017883,331.830444 411.086182,341.262848 
	C409.812347,343.288452 408.600708,345.353149 407.160461,347.697998 
	C332.499298,347.997406 258.037994,348.017151 183.576920,347.907898 
	C181.420059,347.904755 179.265198,346.536255 177.055023,345.413147 
	C182.090225,343.992065 187.244766,343.206940 192.254669,341.877045 
	C200.477280,339.694275 208.606049,337.157898 217.810806,334.467773 
	C209.927567,328.017944 203.074081,322.410645 196.220612,316.803345 
	C196.537048,316.422913 196.853485,316.042480 197.169937,315.662048 
	C240.577209,339.227295 282.721741,339.036469 323.594116,309.224670 
	C322.044952,311.696106 320.182312,313.957581 317.676453,317.000000 
	C322.377228,317.000000 326.120911,317.000000 329.864624,317.000000 
	C357.018097,317.000000 384.171600,317.024750 411.325012,316.981110 
	C417.460968,316.971252 423.956390,318.299103 428.909454,312.983307 
z"/>
<path fill="#66D493" opacity="1.000000" stroke="none" 
	d="
M429.203552,312.796387 
	C423.956390,318.299103 417.460968,316.971252 411.325012,316.981110 
	C384.171600,317.024750 357.018097,317.000000 329.864624,317.000000 
	C326.120911,317.000000 322.377228,317.000000 317.676453,317.000000 
	C320.182312,313.957581 322.044952,311.696106 323.901611,309.062744 
	C335.777771,298.058197 345.195435,285.715210 350.656616,270.210938 
	C350.794495,271.568665 350.882080,273.218353 350.558838,274.783173 
	C350.181366,276.610596 349.445251,278.363983 348.596344,280.975098 
	C379.093933,280.975098 408.658356,280.975098 438.814636,280.975098 
	C440.127716,276.141083 441.615448,270.664154 443.461060,265.091949 
	C440.636047,277.419891 437.599426,289.883606 434.179382,302.241180 
	C433.179901,305.852570 431.088562,309.161743 429.203552,312.796387 
z"/>
<path fill="#53D79B" opacity="1.000000" stroke="none" 
	d="
M349.014526,216.381912 
	C349.151855,216.003098 349.322388,216.001755 349.748779,215.998566 
	C354.064331,223.044601 356.307068,230.501846 354.792053,238.851868 
	C352.654419,231.568695 350.851074,224.164032 349.014526,216.381912 
z"/>
<path fill="#76D18D" opacity="1.000000" stroke="none" 
	d="
M198.988358,405.050140 
	C192.921982,402.979645 186.613419,401.427704 180.839523,398.730988 
	C168.732239,393.076294 156.906296,386.819244 144.872498,380.466309 
	C148.324509,379.415375 151.867737,378.096924 155.413376,378.090424 
	C222.377167,377.967651 289.341278,377.973633 356.305145,378.076752 
	C359.707275,378.082001 363.107697,379.202789 366.672302,380.241638 
	C356.546997,386.086884 346.534180,392.126526 335.909821,396.765686 
	C316.270111,405.341339 295.484619,410.281464 274.153534,411.679382 
	C260.593842,412.568054 246.838196,412.079041 233.281876,410.912445 
	C221.767807,409.921600 210.413406,407.075378 198.988358,405.050140 
z"/>
<path fill="#DFE0DF" opacity="1.000000" stroke="none" 
	d="
M199.029449,405.396423 
	C210.413406,407.075378 221.767807,409.921600 233.281876,410.912445 
	C246.838196,412.079041 260.593842,412.568054 274.153534,411.679382 
	C295.484619,410.281464 316.270111,405.341339 335.909821,396.765686 
	C346.534180,392.126526 356.546997,386.086884 367.047424,380.403290 
	C367.259186,380.127533 367.652802,380.077972 368.071716,379.976624 
	C368.490631,379.875305 368.943390,379.712830 368.943390,379.712830 
	C369.125000,379.763214 369.306641,379.813568 369.760712,380.297638 
	C369.417297,382.509979 368.801453,384.288635 368.126892,386.078064 
	C368.068207,386.088837 368.027740,386.201111 367.822754,386.252991 
	C367.355927,386.472717 367.229340,386.712158 367.165771,387.057434 
	C367.093567,387.091736 367.026337,387.236725 366.822388,387.280426 
	C366.353271,387.482269 366.224701,387.715698 366.161835,388.056732 
	C366.090973,388.089050 366.026306,388.230774 365.820282,388.275909 
	C365.347870,388.480225 365.214020,388.714996 365.147095,389.050476 
	C365.081512,389.075500 365.026794,389.204834 364.812195,389.253174 
	C364.318573,389.461792 364.170349,389.702606 364.105774,390.034424 
	C364.058624,390.044891 364.056061,390.141418 363.754913,390.239532 
	C362.921997,391.196106 362.390228,392.054535 361.890198,392.949341 
	C361.921906,392.985657 361.918762,392.889252 361.658142,392.953705 
	C361.228363,393.317993 361.059204,393.617828 360.936646,393.920776 
	C360.983246,393.923920 360.921234,393.854065 360.612366,393.844666 
	C359.843414,394.202881 359.383301,394.570526 358.966339,394.945740 
	C359.009460,394.953278 358.936127,394.905243 358.608154,394.957520 
	C356.828369,396.321198 355.376556,397.632568 353.965912,398.956177 
	C354.007080,398.968384 353.943207,398.910889 353.618286,398.953674 
	C352.170074,399.978851 351.046814,400.961243 349.955566,401.966248 
	C349.987640,401.988831 349.970245,401.912354 349.677856,401.942993 
	C348.949097,402.323975 348.512756,402.674316 347.837952,403.102600 
	C347.389008,403.431915 347.178528,403.683289 346.968018,403.934692 
	C342.282227,406.962769 337.596405,409.990845 332.213501,413.052612 
	C331.024292,413.749939 330.532135,414.413574 330.039978,415.077209 
	C330.040009,415.077209 330.055878,415.031250 330.075684,415.050659 
	C319.851990,416.835754 309.668091,419.409821 299.350494,420.170532 
	C285.204132,421.213562 270.879730,421.905396 256.773438,420.850861 
	C242.515656,419.784973 228.340775,416.826324 214.315216,413.828400 
	C208.808014,412.651245 202.269791,411.929382 199.029449,405.396423 
z"/>
<path fill="#76D18D" opacity="1.000000" stroke="none" 
	d="
M347.142303,404.269348 
	C347.178528,403.683289 347.389008,403.431915 348.131165,403.070740 
	C349.098633,402.611420 349.534424,402.261871 349.970245,401.912354 
	C349.970245,401.912354 349.987640,401.988831 350.312988,401.955017 
	C351.739929,400.917755 352.841553,399.914307 353.943207,398.910889 
	C353.943207,398.910889 354.007080,398.968384 354.327759,398.944153 
	C356.077667,397.581696 357.506897,396.243469 358.936127,394.905243 
	C358.936127,394.905243 359.009460,394.953278 359.280609,394.944702 
	C360.008240,394.575470 360.464722,394.214752 360.921204,393.854065 
	C360.921234,393.854065 360.983246,393.923920 361.182404,393.835449 
	C361.560638,393.461060 361.739716,393.175171 361.918762,392.889252 
	C361.918762,392.889252 361.921906,392.985657 362.199005,392.856018 
	C363.002747,391.864746 363.529388,391.003082 364.056030,390.141418 
	C364.056061,390.141418 364.058624,390.044891 364.278442,389.929626 
	C364.715881,389.647125 364.892059,389.443970 365.026794,389.204834 
	C365.026794,389.204834 365.081512,389.075500 365.304810,388.943054 
	C365.728333,388.646667 365.894409,388.453400 366.026306,388.230774 
	C366.026306,388.230774 366.090973,388.089050 366.314758,387.948547 
	C366.733215,387.645020 366.895813,387.454559 367.026337,387.236725 
	C367.026337,387.236725 367.093567,387.091736 367.320251,386.944885 
	C367.743195,386.628082 367.903473,386.429108 368.027740,386.201111 
	C368.027740,386.201111 368.068207,386.088837 368.460785,386.006348 
	C369.901031,383.949646 370.948669,381.975433 371.996338,380.001221 
	C373.956482,379.334198 375.894226,378.184204 377.881073,378.091980 
	C383.523438,377.830017 389.207184,378.286896 394.830750,377.869598 
	C397.350861,377.682587 399.766266,376.084930 402.606171,375.468567 
	C403.216675,377.828796 403.450226,379.847809 403.683807,381.866852 
	C403.801941,383.290863 403.920074,384.714874 404.015808,386.567993 
	C404.160126,391.319702 404.214386,395.651154 404.552002,399.960388 
	C404.677307,401.560181 405.466919,403.107880 406.225403,405.557037 
	C403.667450,406.071777 401.364960,406.918945 399.055756,406.937592 
	C384.070038,407.058899 369.081451,407.100006 354.097595,406.893066 
	C351.827148,406.861755 349.576447,405.402710 347.142303,404.269348 
z"/>
<path fill="#76D18D" opacity="1.000000" stroke="none" 
	d="
M143.985947,379.733948 
	C142.320419,378.979462 140.613724,377.863068 138.815155,376.424988 
	C140.463791,377.192871 142.204285,378.282471 143.985947,379.733948 
z"/>
<path fill="#7CD18D" opacity="1.000000" stroke="none" 
	d="
M371.670044,379.999084 
	C370.948669,381.975433 369.901031,383.949646 368.519470,385.995575 
	C368.801453,384.288635 369.417297,382.509979 370.036255,380.360840 
	C370.474152,379.992554 370.908966,379.994720 371.670044,379.999084 
z"/>
<path fill="#7CD18D" opacity="1.000000" stroke="none" 
	d="
M403.765778,381.429108 
	C403.450226,379.847809 403.216675,377.828796 402.967712,375.399017 
	C403.064941,373.860291 403.177521,372.732300 403.506256,371.353485 
	C403.764191,374.398895 403.805969,377.695129 403.765778,381.429108 
z"/>
<path fill="#7CD18D" opacity="1.000000" stroke="none" 
	d="
M404.507172,360.379669 
	C404.669128,361.890137 404.600739,363.691010 404.289154,365.787476 
	C404.122925,364.278778 404.199890,362.474396 404.507172,360.379669 
z"/>
<path fill="#7CD18D" opacity="1.000000" stroke="none" 
	d="
M405.478027,357.275146 
	C405.578674,357.607361 405.505981,358.114807 405.197754,358.754730 
	C405.076385,358.408295 405.190521,357.929321 405.478027,357.275146 
z"/>
<path fill="#7CD18D" opacity="1.000000" stroke="none" 
	d="
M406.449097,353.303162 
	C406.562347,353.633087 406.503784,354.151611 406.227356,354.834656 
	C406.098785,354.496735 406.188080,353.994263 406.449097,353.303162 
z"/>
<path fill="#7CD18D" opacity="1.000000" stroke="none" 
	d="
M368.832397,379.595978 
	C368.943390,379.712830 368.490631,379.875305 368.250977,379.891724 
	C368.130554,379.525604 368.367249,379.382599 368.832397,379.595978 
z"/>
<path fill="#E9E9E9" opacity="1.000000" stroke="none" 
	d="
M330.324158,414.965210 
	C330.532135,414.413574 331.024292,413.749939 331.867188,413.072937 
	C331.681396,413.657471 331.144867,414.255341 330.324158,414.965210 
z"/>
<path fill="#66D493" opacity="1.000000" stroke="none" 
	d="
M444.329712,257.101135 
	C444.598907,258.808716 444.540100,260.618134 444.232361,262.713684 
	C443.989502,261.067535 443.995605,259.135254 444.329712,257.101135 
z"/>
<path fill="#66D493" opacity="1.000000" stroke="none" 
	d="
M443.829712,228.374359 
	C444.240509,229.461304 444.512054,230.861511 444.689789,232.631256 
	C444.294128,231.563080 443.992310,230.125366 443.829712,228.374359 
z"/>
<path fill="#7CD18D" opacity="1.000000" stroke="none" 
	d="
M358.608154,394.957520 
	C357.506897,396.243469 356.077667,397.581696 354.286560,398.931915 
	C355.376556,397.632568 356.828369,396.321198 358.608154,394.957520 
z"/>
<path fill="#7CD18D" opacity="1.000000" stroke="none" 
	d="
M353.618286,398.953644 
	C352.841553,399.914307 351.739929,400.917755 350.280914,401.932434 
	C351.046814,400.961243 352.170074,399.978851 353.618286,398.953644 
z"/>
<path fill="#7CD18D" opacity="1.000000" stroke="none" 
	d="
M363.754883,390.239502 
	C363.529388,391.003082 363.002747,391.864746 362.167297,392.819702 
	C362.390228,392.054535 362.921997,391.196106 363.754883,390.239502 
z"/>
<path fill="#7CD18D" opacity="1.000000" stroke="none" 
	d="
M349.677856,401.942993 
	C349.534424,402.261871 349.098633,402.611420 348.369629,402.992828 
	C348.512756,402.674316 348.949097,402.323975 349.677856,401.942993 
z"/>
<path fill="#7CD18D" opacity="1.000000" stroke="none" 
	d="
M360.612366,393.844635 
	C360.464722,394.214752 360.008240,394.575470 359.237488,394.937195 
	C359.383301,394.570526 359.843414,394.202881 360.612366,393.844635 
z"/>
<path fill="#7CD18D" opacity="1.000000" stroke="none" 
	d="
M361.658142,392.953705 
	C361.739716,393.175171 361.560638,393.461060 361.135803,393.832306 
	C361.059204,393.617828 361.228363,393.317993 361.658142,392.953705 
z"/>
<path fill="#7CD18D" opacity="1.000000" stroke="none" 
	d="
M364.812195,389.253174 
	C364.892059,389.443970 364.715881,389.647125 364.325562,389.919128 
	C364.170349,389.702606 364.318573,389.461792 364.812195,389.253174 
z"/>
<path fill="#7CD18D" opacity="1.000000" stroke="none" 
	d="
M365.820282,388.275909 
	C365.894409,388.453400 365.728333,388.646667 365.370422,388.917999 
	C365.214020,388.714996 365.347870,388.480225 365.820282,388.275909 
z"/>
<path fill="#7CD18D" opacity="1.000000" stroke="none" 
	d="
M366.822388,387.280426 
	C366.895813,387.454559 366.733215,387.645020 366.385620,387.916260 
	C366.224701,387.715698 366.353271,387.482269 366.822388,387.280426 
z"/>
<path fill="#7CD18D" opacity="1.000000" stroke="none" 
	d="
M367.822754,386.252991 
	C367.903473,386.429108 367.743195,386.628082 367.392456,386.910583 
	C367.229340,386.712158 367.355927,386.472717 367.822754,386.252991 
z"/>
</svg>